<?xml version="1.0" encoding="iso-8859-1"?>
<!-- Generator: Adobe Illustrator 23.1.1, SVG Export Plug-In . SVG Version: 6.00 Build 0)  -->
<svg version="1.1" id="&#x30EC;&#x30A4;&#x30E4;&#x30FC;_1"
	 xmlns="http://www.w3.org/2000/svg" xmlns:xlink="http://www.w3.org/1999/xlink" x="0px" y="0px" viewBox="0 0 35.814 12.271"
	 style="enable-background:new 0 0 35.814 12.271;" xml:space="preserve">
<path style="fill:#FFFFFF;" d="M34.129,12.271H1.687C0.758,12.271,0,11.514,0,10.584V1.688C0,0.758,0.758,0,1.687,0h32.441
	c0.93,0,1.686,0.758,1.686,1.688v8.896C35.814,11.514,35.059,12.271,34.129,12.271"/>
<g>
	<path style="fill:#231815;" d="M34.129,12.27L1.687,12.271C0.758,12.271,0,11.516,0,10.584V1.686C0,0.756,0.758,0,1.687,0h32.441
		c0.93,0,1.686,0.756,1.686,1.686v8.898C35.814,11.514,35.059,12.27,34.129,12.27 M1.687,0.613c-0.592,0-1.073,0.48-1.073,1.072
		v8.898c0,0.592,0.481,1.072,1.073,1.072h32.441c0.592,0,1.072-0.48,1.072-1.072V1.686c0-0.592-0.48-1.072-1.072-1.072H1.687z"/>
	<g>
		<path style="fill:#231815;" d="M6.503,8.887c1.005,0,1.128,0.287,1.128,0.744c0,0.588-0.266,0.746-1.207,0.746
			c-1.009,0-1.127-0.289-1.127-0.746C5.297,9.045,5.559,8.887,6.503,8.887 M6.424,9.045c-0.769,0-0.797,0.215-0.797,0.586
			c0,0.447,0.082,0.586,0.876,0.586c0.769,0,0.798-0.215,0.798-0.586C7.301,9.182,7.215,9.045,6.424,9.045"/>
		<path style="fill:#231815;" d="M10.608,8.9c0.198,0,0.757,0.006,0.757,0.383c0,0.082-0.006,0.299-0.435,0.358
			c0.281,0.037,0.398,0.131,0.398,0.328v0.139c0,0.162,0.033,0.221,0.051,0.256h-0.341c-0.028-0.074-0.034-0.16-0.034-0.234V9.984
			c0-0.258-0.264-0.266-0.494-0.266H9.6v0.645H9.273V8.9H10.608 M9.6,9.061v0.5h0.931c0.214,0,0.504-0.004,0.504-0.262
			c0-0.193-0.166-0.238-0.487-0.238H9.6z"/>
		<rect x="12.984" y="8.9" style="fill:#231815;" width="0.33" height="1.459"/>
		<path style="fill:#231815;" d="M16.935,9.367c0.012-0.311-0.459-0.322-0.803-0.322c-0.683,0-0.859,0.107-0.859,0.609
			c0,0.397,0.079,0.562,0.821,0.562c0.753,0,0.865-0.092,0.858-0.457h-0.872v-0.15h1.199c0,0.316,0,0.393-0.091,0.512
			c-0.164,0.223-0.604,0.256-1.055,0.256c-0.875,0-1.188-0.146-1.188-0.732c0-0.504,0.171-0.758,1.176-0.758
			c0.341,0,1.144,0,1.144,0.48H16.935"/>
		<rect x="18.913" y="8.9" style="fill:#231815;" width="0.331" height="1.459"/>
		<polygon style="fill:#231815;" points="21.421,8.9 22.832,10.189 22.832,8.9 23.155,8.9 23.155,10.361 22.661,10.361 
			21.254,9.074 21.254,10.361 20.927,10.361 20.927,8.9 		"/>
		<path style="fill:#231815;" d="M27.064,10.361h-0.369l-0.242-0.375h-1.189l-0.24,0.375h-0.369L25.643,8.9h0.432L27.064,10.361z
			 M25.861,9.064l-0.494,0.768h0.984L25.861,9.064z"/>
		<polygon style="fill:#231815;" points="28.893,8.9 28.893,10.201 30.351,10.201 30.351,10.361 28.566,10.361 28.566,8.9 		"/>
	</g>
	<path style="fill:#231815;" d="M34.107,1.121L1.68,1.123c-0.455,0-0.824,0.367-0.824,0.822v4.746c0,0.455,0.369,0.824,0.824,0.824
		h32.428c0.457,0,0.826-0.369,0.826-0.826V1.945C34.934,1.49,34.564,1.121,34.107,1.121 M9.957,3.029
		c-0.039,0.09-1.316,2.762-1.432,3.002C8.41,6.275,7.951,6.084,7.733,5.981c-0.218-0.1-3.336-1.545-3.527-1.621
		C4.014,4.281,3.848,4.244,3.707,4.537c-0.141,0.295-0.69,1.471-0.754,1.586C2.889,6.238,2.735,6.275,2.66,6.238
		c-0.078-0.039-0.104-0.141,0-0.373c0,0,1.072-2.49,1.252-2.912c0.179-0.422,0.626-0.127,0.83-0.051
		C4.947,2.979,8.18,4.422,8.372,4.5c0.192,0.076,0.333,0.178,0.499-0.129c0.166-0.307,0.754-1.379,0.806-1.482
		c0.051-0.102,0.153-0.127,0.229-0.09C9.983,2.838,9.996,2.94,9.957,3.029 M14.686,6.137c-0.384,0.012-3.004,0-3.604,0
		c-0.602,0-0.754-0.41-0.703-0.885c0.052-0.471,0.575-1.455,0.882-1.992c0.308-0.537,0.845-0.549,1.177-0.549
		c0.331,0,1.636-0.014,1.636-0.014c1.087,0,2.263,0.037,2.62,0.037c0.358,0,0.613,0.193,0.435,0.742
		c-0.179,0.549-0.664,1.791-1.062,2.275C15.671,6.238,15.07,6.123,14.686,6.137 M24.26,6.109h-0.869c-0.217,0-0.23,0-0.357-0.228
		c-0.127-0.23-0.153-0.346-0.269-0.346h-4.078c-0.19,0-0.282,0.049-0.497,0.205c-0.219,0.152-0.359,0.228-0.461,0.307
		c-0.102,0.076-0.141,0.09-0.383,0.09h-0.512c-0.205,0-0.205-0.09,0.076-0.244c0.281-0.152,1.139-0.689,1.139-0.689
		c0.601-0.371,3.873-2.326,4.039-2.391c0.165-0.064,0.229-0.102,0.459-0.102c0.23,0,0.396,0,0.512,0.254
		c0.115,0.256,1.201,2.43,1.316,2.672C24.49,5.881,24.67,6.109,24.26,6.109 M32.828,6.109h-0.869c-0.217,0-0.231,0-0.358-0.228
		c-0.128-0.23-0.153-0.346-0.269-0.346h-4.078c-0.191,0-0.28,0.049-0.497,0.205c-0.218,0.152-0.358,0.228-0.461,0.307
		c-0.102,0.076-0.141,0.09-0.384,0.09H25.4c-0.203,0-0.203-0.09,0.078-0.244c0.281-0.152,1.138-0.689,1.138-0.689
		c0.601-0.371,3.873-2.326,4.038-2.391c0.168-0.064,0.23-0.102,0.461-0.102c0.229,0,0.396,0,0.511,0.254
		c0.116,0.256,1.202,2.43,1.317,2.672C33.058,5.881,33.236,6.109,32.828,6.109"/>
</g>
<path style="fill:#231815;" d="M15.44,3.016c-0.179,0-0.933-0.01-1.328-0.01l-0.69,0.01c-0.691,0.014-0.96,0.422-1.267,0.883
	c-0.307,0.461-0.459,0.869-0.459,1.316s0.306,0.602,0.524,0.639c0.217,0.039,1.123,0.103,1.75,0.09
	c0.626-0.012,0.639-0.102,0.92-0.383c0.309-0.309,0.781-1.113,0.972-1.764C16.054,3.147,15.619,3.016,15.44,3.016"/>
<path style="fill:#231815;" d="M22.168,3.951c-0.113-0.268-0.131-0.283-0.26-0.219c-0.127,0.064-1.201,0.676-1.623,0.906
	c0,0-0.21,0.117-0.512,0.269c-0.362,0.184-0.24,0.287-0.051,0.281c0.166-0.006,2.263,0.041,2.557,0.025
	c0.314-0.016,0.416-0.002,0.39-0.092C22.644,5.035,22.297,4.252,22.168,3.951"/>
<path style="fill:#231815;" d="M30.736,3.951c-0.113-0.268-0.133-0.283-0.261-0.219c-0.128,0.064-1.202,0.676-1.622,0.906
	c0,0-0.211,0.117-0.512,0.269c-0.363,0.184-0.242,0.287-0.051,0.281c0.164-0.006,2.262,0.041,2.557,0.025
	c0.312-0.016,0.414-0.002,0.389-0.092C31.211,5.035,30.863,4.252,30.736,3.951"/>
</svg>
