<svg width="1006" height="720" xmlns="http://www.w3.org/2000/svg" xmlns:xlink="http://www.w3.org/1999/xlink" xml:space="preserve" overflow="hidden"><g transform="translate(-137 0)"><path d="M408.156 149.61 409.549 151.92C392.578 171.229 371.744 192.988 369.36 219.74 375.354 219.899 380.525 214.046 384.34 209.941 387.547 206.49 399.937 188.182 401.143 187.471 402.873 186.461 405.201 187.368 407.052 186.835 409.353 186.171 421.696 165.161 423.753 161.458 426.408 156.661 428.652 149.807 431.243 145.58 431.822 144.636 432.037 143.906 433.412 143.944 446.194 146.571 448.186 160.513 444.165 171.117 455.788 157.745 479.426 134.808 491.367 160.803 500.465 152.453 522.626 140.568 529.939 156.866 537.905 174.614 519.541 191.585 511.452 205.219 503.504 218.618 506.487 226.08 519.569 213.803 525.432 208.295 536.166 190.538 539.935 187.883 541.702 186.639 543.899 187.396 545.685 186.153 547.163 185.124 554.802 171.986 557.336 168.817 565.265 158.886 580.413 145.702 593.383 144.094 606.745 142.429 611.532 150.929 610.635 163.216 609.915 173.071 602.771 183.17 594.421 188.135 590.176 190.66 581.199 192.436 579.525 196.616L577.879 222.555C580.806 225.407 594.748 211.97 597.058 209.473 601.041 205.172 611.158 189.108 613.692 187.312 615.703 185.891 619.303 186.424 621.631 185.882 636.517 161.317 654.817 138.81 666.224 112.198 667.524 109.169 671.059 96.0779 672.948 95.4795 675.678 94.6192 683.439 100.286 685.403 102.399 698.176 116.126 687.478 136.351 678.708 148.993 668.702 163.412 632.151 202.984 629.514 216.701 628.625 221.311 629.654 223.378 634.432 223.574 641.726 223.873 652.011 212.83 656.902 207.603 660.511 203.741 670.058 189.762 672.714 187.883 674.93 186.321 677.296 187.583 678.679 186.826 679.353 186.452 684.926 175.858 686.515 173.632 693.968 163.216 708.471 149.059 720.982 145.449 752.4 136.389 748.491 176.054 726.564 188.434 720.337 191.95 712.8 191.651 711.669 199.721 711.098 203.779 710.78 211.119 710.612 215.486 710.556 217.047 710.172 223.35 712.043 223.452 727.621 216.084 735.372 201.366 745.677 188.818 746.584 187.714 748.482 187.275 749.034 186.358 750.651 183.656 750.848 172.145 754.223 165.609 760.488 153.51 777.179 141.84 787.802 156.137 794.646 165.366 784.482 165.404 779.844 171.594 773.084 180.608 776.992 191.754 778.834 201.581 781.331 203.405 793.403 197.916 794.338 196.382 795.806 193.97 793.767 188.144 793.851 184.713 794.169 171.351 803.67 150.732 818.78 149.676 824.821 149.255 836.004 155.324 835.032 162.187 834.583 165.394 830.936 165.591 828.926 167.377 816.227 178.682 821.548 187.509 822.988 202.301L824.391 203.704C829.15 203.582 847.375 206.135 839.23 213.214 834.471 217.356 829.982 212.793 824.652 214.541 823.25 219.544 823.979 223.836 822.38 229.091 816.181 249.494 783.295 256.002 777.02 232.831 768.193 244.015 757.767 251.233 743.105 245.707 732.511 241.714 729.659 231.756 734.017 221.61L732.165 221.61C729.425 226.978 721.786 232.541 716.531 235.44 712.482 237.684 700.102 240.798 698.755 242.434 695.716 246.137 700.597 260.154 692.603 257.938 686.702 256.301 692.687 246.792 691.499 244.08 689.947 240.545 682.064 239.302 678.38 236.553 668.796 229.428 669.516 218.169 670.9 207.575 658.557 222.789 634.759 249.419 612.701 241.452 602.621 237.815 603.986 225.304 604.51 216.926 596.328 226.65 587.931 234.122 575.944 238.853 571.53 240.602 565.761 239.423 564.817 245.492 564.041 250.495 567.117 261.603 558.131 256.741 555.017 252.374 560.263 247.699 558.103 243.725 555.943 239.751 547.574 238.89 543.348 235.057 541.431 233.317 537.644 227.277 537.644 224.864L537.644 208.501C528.003 220.544 507.506 246.773 489.909 237.067 474.452 228.539 484.195 206.247 490.731 194.783 493.2 190.463 510.891 167.788 507.722 164.562 504.28 164.207 501.747 165.768 498.997 167.517 487.178 175.025 462.165 211.923 462.006 225.912 461.969 229.549 466.102 234.552 460.482 235.608 452.123 237.179 440.883 233.691 438.957 224.472 435.441 207.669 454.741 185.863 461.903 171.566 462.193 170.285 461.847 169.808 460.529 170.191 452.431 172.576 433.496 203.349 429.026 211.624 426.184 216.898 419.218 235.057 414.916 236.786 400.133 242.762 393.672 222.574 396.916 211.306L380.571 228.623C373.549 234.206 360.982 243.94 352.276 236.581 347.442 232.495 349.106 225.341 346.423 220.685 345.31 225.192 330.994 233.355 330.994 236.095L330.994 258.069C318.885 260.631 325.664 247.147 325.44 241.724 325.141 234.645 317.567 235.571 312.919 232.672 304.822 227.623 305.916 216.617 306.673 208.519 297.594 220.928 274.189 248.699 257.18 236.048 244.622 226.716 254.618 203.666 260.705 192.923 262.594 189.594 275.723 172.407 273.946 170.172 268.13 172.389 264.221 177.681 260.472 182.403 254.272 190.192 247.194 201.357 242.341 210.09 239.012 216.084 231.887 235.328 226.314 237.076 215.785 240.368 209.015 230.25 208.566 220.984 206.911 187.284 261.837 144.757 273.722 111.506 275.339 106.981 275.199 101.333 276.433 98.3875 277.976 94.694 285.84 97.8639 288.608 98.9392 299.426 103.138 303.513 109.346 297.669 120.492L271.15 157.082C280.015 150.078 293.274 143.467 300.904 155.838 310.947 172.117 285.045 195.419 278.453 209.744 272.768 222.087 278.93 222.424 287.532 215.084 290.497 212.55 293.835 208.323 296.369 205.219 299.398 201.516 305.888 190.361 308.478 188.341 311.068 186.321 313.929 187.724 315.584 186.097 316.454 185.246 317.426 182.076 318.446 180.542 325.795 169.499 334.548 158.138 346.03 151.088 356.746 144.505 375.12 137.455 379.627 154.286L381.011 154.286C384.312 150.854 384.573 149.61 389.436 149.61L408.137 149.61ZM732.997 162.804C729.846 157.568 712.734 177.139 710.668 180 711.968 182.179 715.24 180.655 717.204 180.009 722.029 178.429 736.738 169.013 732.988 162.795ZM359.074 186.078C362.73 181.945 366.976 175.362 368.864 170.163 369.753 167.713 371.623 164.646 368.836 162.711 358.064 164.871 359.589 177.644 359.074 186.078ZM600.312 162.701C596.786 159.176 584.285 172.22 582.069 174.838 581.339 175.699 577.169 180.748 577.879 181.393 586.893 180.056 601.041 173.314 600.312 162.701ZM353.445 175.792C351.575 175.437 350.949 176.026 349.696 177.176 344.656 181.823 329.255 208.202 328.395 214.822 328.161 216.617 327.852 217.58 329.592 218.768 344.936 212.783 357.055 192.034 353.436 175.792ZM569.165 195.588C565.163 196.812 559.87 216.299 561.235 220.946 562.357 224.78 571.586 227.595 572.998 222.826 572.606 216.299 573.887 209.754 574.167 203.423 574.354 199.253 575.112 193.773 569.165 195.588ZM701.916 195.559C698.989 196.541 685.449 225.856 701.804 225.407 703.73 225.351 705.104 224.705 705.787 222.826L706.778 196.971C706.17 195.129 703.552 195.017 701.916 195.569ZM740.581 213.185 753.232 206.687C753.279 205.144 751.633 198.252 750.39 198.243L740.581 213.176ZM786.39 212.269C783.697 212.278 779.143 213.475 778.872 216.514L780.321 219.74 786.39 212.269ZM754.588 219.74C750.838 220.049 737.906 228.511 743.32 232.438 748.37 236.095 756.561 224.967 754.588 219.74ZM798.087 219.759C793.29 222.751 784.435 225.173 788.222 232.429 789.775 233.57 795.525 231.073 796.722 229.586 797.76 228.305 800.612 219.852 798.097 219.75Z" fill="#FFFFFF" transform="matrix(1.0008 0 0 1 137 0)"/><path d="M184.208 187.481C184.208 187.237 185.012 186.349 184.946 184.965 184.601 177.251 178.448 172.351 178.092 165.544 177.242 149.246 203.956 134.406 213.167 122.933 215.776 119.679 218.889 116.397 217.749 111.871L216.337 110.469C202.226 108.234 172.735 123.569 170.369 138.156 169.808 141.653 171.304 144.056 171.201 147.273 170.846 158.232 167.638 195.513 172.192 203.236 175.269 208.454 180.87 212.578 184.096 219.385 187.322 226.192 187.639 231.877 189.108 239.152 207.051 245.455 225.201 251.439 243.659 256.133 270.879 263.052 317.071 274.002 341.224 255.656 348.63 250.027 350.808 238.918 357.653 252.477 382.226 301.138 299.305 293.152 274.329 287.177 264.614 284.858 250.99 278.229 242.425 276.966 240.452 276.676 238.872 276.256 237.516 278.182 237.506 280.557 239.302 280.145 240.77 280.519 246.09 281.885 251.186 282.623 256.442 284.484 289.59 296.229 309.46 327.927 339.905 344.085 350.836 309.89 373.334 277.798 404.023 258.611 422.799 246.867 462.539 232.457 465.541 267.064 465.896 271.122 464.148 277.303 464.905 279.828 465.765 282.717 471.076 288.14 472.507 293.769 482.437 332.836 442.557 394.279 409.25 413.448 385.322 427.222 349.265 429.943 337.082 400.114L334.753 400.198C334.678 396.449 336.053 392.381 331.013 392.709L334.753 391.773C333.453 385.499 333.463 378.131 333.828 371.688 334.015 368.416 336.717 360.729 334.763 358.579 305.504 348.396 279.734 321.681 249.672 314.631 241.537 312.723 235.608 314.135 227.38 314.331 223.752 317.473 225.332 333.089 223.004 333.799 216.757 335.716 219.918 322.756 219.768 320.278 219.095 309.488 209.221 315.388 203.199 318.661 201.525 319.568 199.206 323.112 197.748 320.746 192.521 296.949 206.341 276.807 231.896 279.566 231.765 272.684 226.435 274.713 222.293 273.75 215.308 272.123 214.663 265.287 210.137 262.529 203.854 258.686 193.437 256.114 186.639 252.524 179.654 266.643 170.752 278.687 156.203 285.69 126.271 300.1 61.7891 289.777 74.6743 245.305 86.7273 203.676 136.015 216.542 165.506 229.072 165.843 222.602 161.28 215.551 157.063 210.876 146.02 198.617 128.646 196.046 122.316 178.298 109.318 141.803 168.452 97.6208 200.581 94.4416 224.453 92.0758 241.686 105.915 228.642 129.983 219.273 147.263 196.364 160.803 199.674 182.356L198.589 183.207C183.002 179.804 194.372 196.925 190.23 202.853 188.369 205.509 184.208 205.172 184.208 203.377 184.208 198.084 184.32 192.773 184.208 187.481ZM165.506 140.26C163.44 139.989 162.374 140.297 160.766 141.588 158.914 143.074 151.77 152.799 150.171 155.305 145.534 162.561 139.128 174.53 145.477 182.282 146.992 184.133 158.475 192.399 160.401 192.623 162.327 192.848 161.486 192.39 161.878 191.324 163.225 187.668 164.151 180.318 164.571 176.25 165.796 164.412 165.394 152.144 165.516 140.26ZM124.495 276.648C137.211 276.901 149.517 264.904 156.371 255.02 158.596 251.804 162.056 246.848 162.299 243.079 161.168 241.658 137.09 236.861 133.92 236.824 123.429 236.712 125.916 246.427 125.299 252.926 124.953 256.498 122.035 275.105 124.504 276.648ZM111.02 237.722C98.0042 240.471 89.626 262.136 99.5564 272.141 102.427 275.031 110.974 279.697 114.639 276.863 119.286 273.273 122.363 243.846 117.884 238.853 116.172 236.945 113.302 237.235 111.03 237.722ZM402.125 330.976C403.808 331.34 404.902 330.976 406.342 330.125 409.334 328.348 423.22 313.565 426.418 310.002 435.656 299.716 452.908 277.92 453.441 264.016 454.086 247.25 434.038 259.303 427.035 263.866 415.356 271.487 403.406 282.203 402.162 296.977 402.031 298.557 403.125 300.146 403.013 301.558 402.246 311.283 399.852 321.279 402.115 330.976ZM398.338 294.545C397.057 294.517 395.794 294.321 394.607 295.022 393.335 295.78 385.434 307.328 383.928 309.591 375.756 321.821 368.481 335.875 363.75 349.714 365.433 351.323 382.797 345.478 385.48 343.87 396.477 337.297 398.973 306.299 398.338 294.545ZM358.223 363.834C354.642 378.767 349.312 412.476 373.521 411.457 395.691 410.531 423.463 373.783 434.263 356.176 444.305 339.812 454.058 320.222 456.302 301.091L446.942 314.621C440.883 322.214 428.924 331.471 425.969 340.401 423.94 346.535 428.587 365.049 424.809 367.565L421.434 367.565C418.395 365.536 422.35 349.097 421.761 344.515 421.527 342.701 421.63 341.42 419.367 341.233 416.609 341.009 406.192 348.891 402.704 350.799 388.763 358.401 374.475 364.152 358.214 363.824Z" fill="#FFFFFF" transform="matrix(1.0008 0 0 1 137 0)"/><path d="M766.753 354.39 748.548 376.859C745.022 381.899 728.416 388.454 727.509 393.223 726.845 396.701 729.444 405.388 724.161 405.865 715.596 406.641 723.319 392.484 722.805 391.811 711.641 387.482 706.002 375.391 709.705 363.75 700.457 374.129 677.763 399.319 662.924 385.761 651.404 375.242 661.512 353.931 667.823 342.888 669.525 339.905 682.504 322.672 680.727 320.737 674.603 322.457 670.124 328.226 666.318 332.967 660.502 340.195 654.293 350.303 649.721 358.448 646.233 364.647 639.697 381.535 635.891 385.499 631.085 390.521 622.837 387.93 619.181 382.759 614.113 375.606 616.152 368.78 615.759 360.944 610.747 367.761 605.006 374.755 598.47 380.123 595.524 382.535 583.06 389.539 582.489 390.324 580.133 393.578 583.237 401.685 579.806 405.407 578.067 406.585 575.598 405.65 574.616 403.948 572.531 399.722 576.888 395.373 575.925 392.419 574.962 389.464 564.676 386.144 563.152 377.074 558.701 350.518 590.363 325.496 596.684 301.184 604.585 299.324 611.794 307.234 612.486 314.64 613.814 328.685 601.798 336.324 599.816 348.723 599.246 352.304 598.722 357.859 598.535 361.505 598.451 363.132 598.432 363.628 599.863 364.647 602.799 361.421 605.941 358.177 608.718 354.82 611.897 350.995 617.676 341.186 620.827 338.877 623.613 336.838 626.344 338.194 627.924 336.623 630.561 334.015 640.071 317.305 642.558 312.919 644.185 310.049 650.581 295.041 652.329 294.704 656.201 293.956 662.484 301.053 663.653 304.597 666.402 312.919 663.092 318.782 660.175 326.319 669.329 316.398 685.131 294.779 700.906 301.007 702.832 301.764 706.759 305.532 707.648 307.365 712.015 316.407 706.881 326.384 702.065 334.099 698.278 340.177 678.708 363.712 682.738 370.145 688.385 372.549 694.398 365.751 698.054 361.879 702.122 357.569 713.296 339.99 715.736 338.419 718.046 336.941 720.065 337.989 722.169 337.371 723.909 336.866 735.204 318.006 736.999 314.799 738.187 312.676 742.731 301.923 743.339 301.512 748.781 297.828 757.683 307.122 758.366 312.742 760.413 329.573 749.193 333.556 746.406 346.647 745.733 349.808 745.004 358.205 745.256 361.403 745.368 362.796 744.527 364.105 746.649 363.722 748.361 362.01 750.156 360.365 751.783 358.56 755.056 354.941 765.715 338.681 768.408 337.745 769.577 337.343 771.391 337.886 772.223 337.381 773.205 336.782 781.303 320.924 783.762 317.595 792.374 305.953 812.917 288.636 827.869 298.417 835.078 303.129 833.526 312.415 832.236 319.773L836.93 315.519C841.708 313.471 848.422 326.525 841.156 331.041 839.436 332.116 836.715 331.668 836.079 333.444 837.276 350.827 827.579 374.353 812.899 384.134 807.559 387.687 799.658 388.426 799.452 396.944 799.359 400.806 803.744 414.673 796.619 412.887 790.111 411.26 797.769 397.216 793.926 392.176 791.71 389.258 779.358 388.089 773.785 382.404 771.438 380.01 766.763 370.95 766.763 367.92L766.763 354.362ZM812.571 319.783 822.904 321.27C824.409 319.343 825.139 314.182 822.24 313.34 819.341 312.499 811.15 318.577 812.581 319.783ZM807.008 330.976C806.839 330.817 806.821 326.478 805.082 327.722 803.567 330.368 801.192 332.939 799.911 335.651 796.432 343.001 795.974 356.699 795.703 365.105 795.619 367.752 794.936 377.981 797.246 378.655 811.767 375.812 823.904 350.135 820.211 336.932 816.948 325.281 808.167 332.051 807.017 330.976ZM741.497 351.584C737.476 353.529 728.799 369.846 735.559 371.081 742.32 372.315 741.759 355.586 741.497 351.584ZM595.627 352.529C593.158 349.649 582.33 369.743 589.689 371.09 596.16 372.268 595.459 356.606 595.627 352.529ZM791.991 353.455C790.27 353.744 790.42 355.381 790.008 356.606 787.998 362.469 785.445 372.614 789.662 377.748 791.383 376.616 790.962 375.27 791.102 373.605 791.663 366.929 791.785 360.159 791.991 353.464Z" fill="#FFFFFF" transform="matrix(1.0008 0 0 1 137 0)"/><path d="M525.516 311.377C534.539 302.755 549.884 294.34 560.702 305.168 573.896 318.371 559.393 349.219 550.781 362.366 542.085 375.634 525.058 392.559 507.731 383.854 497.511 378.72 498.567 370.828 499.315 361.384 499.399 360.383 499.886 358.822 498.399 359.074 491.021 373.914 480.053 389.193 478.716 406.258 478.164 413.317 479.408 420.33 479.688 427.334 447.466 424.791 458.004 389.585 467.981 370.276 480.371 346.311 501.101 325.403 500.671 296.369 510.078 293.769 526.516 299.333 525.516 311.386ZM503.074 353.455C512.78 343.206 524.263 339.167 531.584 354.371 532.865 354.352 542.88 335.857 543.983 333.126 545.807 328.61 551.539 314.977 543.768 314.107 533.137 312.919 520.354 329.461 513.884 336.698L503.065 353.455ZM529.247 356.269C526.348 356.073 523.562 356.839 520.831 357.662 504.645 362.581 504.178 380.197 520.756 366.938 522.037 365.91 530.462 357.335 529.247 356.269Z" fill="#FFFFFF" transform="matrix(1.0008 0 0 1 137 0)"/><path d="M888.321 324.468C896.811 314.687 920.422 288.159 933.204 305.289 944.986 321.083 918.785 345.03 912.146 359.046 904.713 374.727 913.923 372.932 922.956 364.245 926.911 360.439 941.264 338.802 942.779 338.176 945.023 337.25 947.67 337.568 950.045 337.558 951.587 339.12 944.631 350.603 943.322 352.8 935.261 366.33 912.82 394.756 894.885 388.501 876.951 382.245 887.255 356.054 893.782 344.403 895.53 341.28 909.594 322.345 907.967 320.727 907.228 320.652 906.536 320.709 905.797 320.877 898.438 322.635 880.242 351.828 876.016 359.364 872.659 365.349 866.506 381.413 862.672 385.293 854.93 393.148 844.233 383.984 842.737 375.195 838.959 352.95 864.234 323.729 874.192 304.242 877.194 298.361 875.875 291.469 883.964 296.565 894.072 302.933 891.762 314.836 888.34 324.458Z" fill="#FFFFFF" transform="matrix(1.0008 0 0 1 137 0)"/><path d="M376.831 488.104C376.859 486.458 379.3 486.954 380.123 485.317 381.142 483.298 380.88 453.684 379.749 452.179 378.823 450.963 376.588 452.515 376.841 450.711L402.078 451.636C397.29 424.407 429.092 405.986 450.215 423.612 471.572 441.425 452.123 459.706 434.74 469.019L446.98 492.77 447.905 488.104 488.113 488.104 488.113 493.724C466.887 490.245 470.095 506.684 462.895 520.279L464.727 521.766C468.355 509.947 481.437 505.459 492.508 509.423 494.612 510.181 497.511 513.547 499.39 512.013 500.559 511.06 499.465 508.507 501.204 508.685L501.204 524.581C498.997 523.459 499.474 519.606 498.605 517.362 495.687 509.844 485.42 506.684 479.193 512.388 470.169 520.644 471.151 551.052 484.214 534.24 487.337 530.219 486.916 524.936 492.789 526.46 494.406 527.928 483.438 550.164 479.716 552.165 485.878 557.317 495.893 554.391 498.623 546.77 499.568 544.142 498.801 539.906 501.214 538.607L501.214 554.503 497.969 551.66C494.229 553.802 490.17 556.186 485.691 556.27 481.212 556.354 476.238 555.485 470.824 555.522 459.65 555.588 453.114 543.983 446.512 536.755 438.901 543.506 429.672 551.146 419.657 553.83 385.153 563.077 363.366 518.662 388.51 493.696 390.165 492.05 397.805 486.823 398.225 485.617 399.535 481.811 396.29 466.682 389.006 470.347L389.006 485.776 392.746 488.113 376.85 488.113ZM427.325 420.789C408.661 424.557 401.91 440.163 407.651 457.752 420.415 480.268 431.663 503.935 444.932 526.133 450.589 535.596 458.575 550.267 470.338 551.679L464.26 544.217 461.511 525.46C452.038 506.917 439.78 488.927 430.588 470.356 423.238 455.498 414.234 435.03 427.334 420.789ZM431.074 463.792C439.63 456.536 444.539 431.617 436.255 423.547 432.29 419.685 428.98 423.5 426.913 427.381 420.564 439.293 427.334 452.347 431.074 463.792ZM437.61 461.913C449.486 456.433 461.492 445.353 452.412 431.691 450.178 428.316 444.315 422.556 440.416 423.117 447.559 435.301 443.613 450.196 437.601 461.922ZM388.987 469.403C402.676 473.04 401.62 445.502 388.987 453.039L388.987 469.403ZM412.242 476.743C413.42 474.742 407.651 466.831 406.286 464.746 403.742 467.579 400.385 469.627 396.477 469.412 398.151 471.759 401.049 470.628 403.546 473.087 405.36 474.873 405.996 477.182 405.828 479.688L412.242 476.743ZM444.081 532.884 414.767 480.661C411.045 481.914 411.419 486.346 410.905 487.197 408.866 490.526 405.472 491.704 403.228 498.137 392.241 529.574 414.86 553.409 444.09 532.893ZM403.004 488.104C396.243 491.218 387.631 498.651 384.115 505.206 372.072 527.648 395.757 561.17 421.696 549.332L431.991 543.273C405.669 548.995 393.083 527.685 397.814 503.935 398.936 498.287 401.807 493.583 403.004 488.095ZM460.043 514.286C461.165 510.564 465.924 500.821 464.297 497.464 462.352 493.452 451.805 493.415 447.896 493.724L460.043 514.286ZM476.892 548.883C477.575 549.397 483.344 542.487 482.484 541.403L475.013 542.338 476.892 548.874Z" stroke="#FFFFFF" stroke-width="0.935065" stroke-miterlimit="10" fill="none" transform="matrix(1.0008 0 0 1 137 0)"/><path d="M534.857 436.675 531.117 439.013 531.117 459.117 547.481 459.117 548.547 457.724C548.771 454.601 548.135 451.393 548.042 448.457 547.957 446.007 549.388 441.005 547.527 438.489 546.555 437.171 544.03 438.452 544.208 436.675L562.909 436.675C563.087 438.452 560.562 437.171 559.59 438.489 557.514 441.304 559.225 447.279 559.216 450.196 559.188 460.136 559.169 470.076 559.131 480.006L563.844 482.493 544.208 482.493 544.208 481.568C544.208 481.568 547.948 480.623 547.948 480.623L547.948 461.455C547.948 461.174 549.136 460.735 548.883 460.052L531.117 460.052 531.117 480.623 534.848 481.568 534.848 482.493C534.848 482.493 516.156 482.493 516.156 482.493 516.212 480.67 518.97 481.577 519.98 480.006 520.915 478.548 520.756 476.275 520.878 474.583 521.43 466.579 521.757 450.514 520.747 442.847 520.607 441.771 520.064 439.209 519.447 438.527 518.25 437.208 516.025 438.396 516.156 436.675L534.857 436.675Z" stroke="#FFFFFF" stroke-width="0.935065" stroke-miterlimit="10" fill="#E7201A" transform="matrix(1.0008 0 0 1 137 0)"/><path d="M719.532 508.675C721.225 508.89 727.639 511.078 729.117 512.079 735.475 516.39 733.886 526.161 727.808 530.042 725.704 531.388 721.337 531.033 721.861 533.913 723.927 533.885 727.733 535.549 729.051 537.017 733.194 541.636 729.884 554.942 738.692 553.091 733.97 557.663 724.797 557.345 722.319 550.772 720.907 547.032 720.411 536.531 717.887 534.165 716.213 532.604 709.714 532.426 709.714 534.39L709.714 549.351C709.714 550.033 711.136 552.09 710.705 553.502L714.399 553.558 714.399 555.429 694.753 555.429C695.099 553.306 698.166 553.886 698.998 552.661 701.177 549.453 698.194 517.474 699.485 511.078L694.753 508.675C702.561 509.395 711.94 507.703 719.532 508.675ZM709.714 514.753C709.144 519.316 709.714 525.796 709.714 530.649 709.714 533.174 717.503 531.893 719.561 530.21 723.525 526.975 723.703 513.781 718.822 511.265 714.09 508.834 710.434 509.059 709.714 514.753Z" stroke="#FFFFFF" stroke-width="0.935065" stroke-miterlimit="10" fill="#E7201A" transform="matrix(1.0008 0 0 1 137 0)"/><path d="M775.169 508.675 775.169 522.701C772.364 520.532 773.037 516.633 770.821 513.594 767.829 509.489 759.329 509.115 755.532 511.948L755.532 531.117C757.861 531.238 759.497 531.425 761.657 530.229 764.986 528.377 764.116 524.487 766.753 522.701L766.753 540.468C764.518 539.028 765.313 535.727 762.583 533.885 760.759 532.65 757.721 532.267 755.532 532.052L755.532 552.156C760.722 554.933 769.745 554.933 772.56 548.612L776.095 540.468 777.039 555.419 740.571 555.419C740.917 553.297 743.984 553.876 744.817 552.651 745.911 551.043 745.714 517.792 745.153 513.856 745.013 512.892 744.751 511.415 744.087 510.751 743.068 509.723 740.487 510.358 740.562 508.666L775.159 508.666Z" stroke="#FFFFFF" stroke-width="0.935065" stroke-miterlimit="10" fill="#E7201A" transform="matrix(1.0008 0 0 1 137 0)"/><path d="M645.195 508.675 645.195 524.571C642.399 525.039 643.717 523.833 643.222 522.374 640.893 515.473 639.248 509.04 630.234 510.545L630.234 551.221C630.234 554.942 635.975 552.38 636.779 555.429L613.403 555.429 613.403 553.568C613.403 553.568 618.377 553.596 618.377 553.596 618.994 553.409 619.948 551.483 619.948 551.221L619.948 510.545C608.989 508.47 609.887 518.709 604.987 524.571L604.987 508.675 645.195 508.675Z" stroke="#FFFFFF" stroke-width="0.935065" stroke-miterlimit="10" fill="#E7201A" transform="matrix(1.0008 0 0 1 137 0)"/><path d="M736.831 436.675 735.887 449.757 732.577 441.388C728.967 436.881 724.03 437.227 718.719 437.723 717.718 438.097 716.26 441.201 716.26 441.809L716.26 457.705C718.635 459.996 723.385 457.864 725.068 455.292 726.284 453.422 725.629 450.037 728.416 450.692L728.416 468.458C725.573 466.682 726.078 462.016 722.796 460.529 721.085 459.753 717.148 459.285 716.391 461.576 716.316 465.148 715.278 480.249 718.71 481.428 721.496 482.391 728.818 481.231 731.286 479.286 734.297 476.911 734.755 473.059 735.775 469.702 736.242 468.159 735.036 467.084 737.766 467.523L737.766 482.484 702.234 482.484C702.159 480.792 704.74 481.418 705.759 480.399 708.555 477.594 706.049 446.961 706.881 440.902 706.572 438.396 704.562 437.564 702.234 437.592 702.935 434.983 704.029 436.666 704.571 436.666L736.831 436.666Z" stroke="#FFFFFF" stroke-width="0.935065" stroke-miterlimit="10" fill="#E7201A" transform="matrix(1.0008 0 0 1 137 0)"/><path d="M657.351 437.143 659.464 435.918 697.558 435.74 696.165 451.646C693.93 444.67 691.742 436.217 682.607 437.61L682.607 479.221 689.143 481.568 689.143 482.493C689.143 482.493 665.776 482.493 665.776 482.493L665.776 481.568C665.776 481.568 670.75 480.698 670.75 480.698 671.227 480.408 672.321 478.65 672.321 478.286L672.321 437.61C668.852 437.33 666.505 437.536 663.868 439.911 660.118 443.277 660.838 448.523 657.36 451.636L657.36 437.143Z" stroke="#FFFFFF" stroke-width="0.935065" stroke-miterlimit="10" fill="#E7201A" transform="matrix(1.0008 0 0 1 137 0)"/><path d="M294.078 391.792C304.064 393.073 307.954 402.031 299.903 408.838L293.62 411.419C304.943 412.195 301.082 422.949 306.701 429.185 303.541 430.373 299.081 430.822 296.696 427.989 292.273 422.762 297.023 408.38 285.195 411.429L285.195 425.922C285.195 427.586 287.261 428.793 288.926 428.269L288.926 429.195C288.926 429.195 273.039 429.195 273.039 429.195 272.852 427.418 275.461 428.643 276.386 427.399 277.396 426.034 277.396 394.953 276.386 393.588 275.47 392.335 272.852 393.569 273.039 391.792 279.678 392.4 287.626 390.96 294.078 391.792ZM286.177 392.783C285.7 396.084 283.512 409.325 286.728 410.391 297.528 413.981 300.137 388.735 286.177 392.783Z" stroke="#FFFFFF" stroke-width="0.935065" stroke-miterlimit="10" fill="#E71F19" transform="matrix(1.0008 0 0 1 137 0)"/><path d="M136.052 450.701C144.318 451.982 148.657 459.005 143.093 466.158L134.649 470.319C144.131 471.123 143.719 478.912 145.982 486.112L149.592 486.692C147.114 488.917 141.298 489.74 138.661 487.805 133.817 482.026 138.137 468.234 127.15 470.338L127.15 485.766 130.89 488.104 114.994 488.104C114.751 486.28 116.986 487.842 117.912 486.626 119.052 485.13 119.314 455.517 118.286 453.488 117.463 451.851 115.022 452.347 114.994 450.701 121.474 451.412 129.815 449.738 136.033 450.701ZM127.169 469.403C140.858 473.04 139.802 445.502 127.169 453.039L127.169 469.403Z" stroke="#FFFFFF" stroke-width="0.935065" stroke-miterlimit="10" fill="#E71F19" transform="matrix(1.0008 0 0 1 137 0)"/><path d="M377.299 598.442C377.701 598.395 378.589 597.161 379.627 597.506L379.627 604.51C379.29 605.903 377.598 604.043 377.299 604.043L358.13 604.043 358.13 610.588 371.221 610.588 371.688 608.718C373.998 610.934 373.287 615.151 372.642 618.078L368.911 616.17 358.13 616.189 358.13 623.679 378.243 623.679C378.533 623.679 379.562 622.389 380.571 622.744L379.655 630.767C378.991 631.328 378.477 630.224 378.243 630.224L349.724 630.224C351.248 620.06 351.248 608.578 349.724 598.432 358.485 597.693 368.743 599.433 377.308 598.432Z" fill="#FFFFFF" transform="matrix(1.0008 0 0 1 137 0)"/><path d="M642.979 612.168C642.754 612.477 641.931 612.477 641.473 612.486L641.473 614.319C645.681 615.235 646.644 618.368 646.195 622.323 645.064 632.347 619.583 633.048 616.629 623.735 615.114 618.976 616.909 616.245 620.892 613.851 604.398 592.925 656.565 593.654 642.979 612.168ZM637.583 609.541C641.221 601.911 625.764 602.425 624.689 605.539 622.725 611.233 634.161 611.532 637.583 609.541ZM638.425 623.464C646.027 616.133 620.388 611.71 623.829 622.136 624.932 625.493 636.396 625.427 638.425 623.464Z" fill="#FFFFFF" transform="matrix(1.0008 0 0 1 137 0)"/><path d="M419.844 601.256 417.03 608.727C413.009 606.988 411.12 604.463 406.286 604.043 401.451 603.622 392.138 606.969 398.815 609.653 404.378 611.888 417.871 609.092 419.638 616.872 423.463 633.75 398.73 631.169 388.987 627.419L392.316 620.892C395.617 624.745 412.186 626.531 413.299 621.341 414.168 617.283 399.245 617.751 396.234 616.928 388.585 614.833 387.098 605.875 393.195 601.256 401.049 595.3 411.344 599.891 419.844 601.256Z" fill="#FFFFFF" transform="matrix(1.0008 0 0 1 137 0)"/><path d="M513.351 623.688 532.519 623.688C532.716 623.688 533.576 622.295 533.913 622.753L533.913 630.234C533.913 630.234 504 630.234 504 630.234 503.261 616.17 519.784 617.377 525.273 608.11L523.945 604.912C521.28 603.229 514.398 604.08 512.397 606.371 510.76 608.25 512.612 610.934 510.087 610.588L504.935 604.061C510.377 601.574 512.883 598.498 519.41 598.376 528.097 598.217 533.511 601.668 531.986 611.009 530.752 618.574 517.643 618.966 513.351 623.688Z" fill="#FFFFFF" transform="matrix(1.0008 0 0 1 137 0)"/><path d="M573.176 614.347C573.176 623.352 565.873 630.655 556.869 630.655 547.864 630.655 540.561 623.352 540.561 614.347 540.561 605.342 547.864 598.039 556.869 598.039 565.873 598.039 573.176 605.342 573.176 614.347ZM554.222 604.248C544.208 606.502 545.489 627.569 559.431 624.427 569.445 622.174 568.164 601.106 554.222 604.248Z" fill="#FFFFFF" transform="matrix(1.0008 0 0 1 137 0)"/><path d="M609.662 482.493 590.961 482.493C590.774 480.726 593.392 481.923 594.309 480.698 595.646 478.922 591.831 467.271 590.493 465.653 589.39 464.325 579.488 464.335 577.393 464.718 573.849 465.363 570.605 477.659 573.157 480.184 574.56 481.568 577.59 480.67 577.861 482.493L564.77 482.493C565.406 480.885 567.023 481.016 568.379 479.09 571.343 474.882 573.344 467.766 575.065 462.848L589.082 463.783 583.462 446.026 581.61 447.887C582.237 444.436 583.78 440.219 585.238 437.049 587.015 433.178 590.288 437.283 591.466 439.434 598.451 452.188 600.695 470.515 609.653 482.493Z" stroke="#FFFFFF" stroke-width="0.935065" stroke-miterlimit="10" fill="#E7201A" transform="matrix(1.0008 0 0 1 137 0)"/><path d="M579.74 508.675C578.169 511.069 574.869 510.115 574.149 513.837 573.298 518.288 573.55 540.645 574.354 545.386 575.86 554.325 581.32 554.073 589.091 553.568 584.042 558.346 571.802 556.289 567.575 551.23 560.319 542.553 566.275 514.267 562.937 510.985 561.834 509.891 559.188 510.349 559.169 508.675L579.74 508.675Z" stroke="#FFFFFF" stroke-width="0.935065" stroke-miterlimit="10" fill="#E7201A" transform="matrix(1.0008 0 0 1 137 0)"/><path d="M668.571 508.675C668.225 510.798 665.158 510.218 664.326 511.443 663.316 512.93 663.438 543.946 664.111 547.275 665.794 555.578 672.256 553.446 678.857 553.577 679.082 554.924 677.24 554.83 676.248 555.148 669.123 557.448 658.641 556.289 655.284 548.612 651.703 540.421 655.499 513.809 652.46 510.76 651.441 509.732 648.86 510.368 648.935 508.675L668.571 508.675Z" stroke="#FFFFFF" stroke-width="0.935065" stroke-miterlimit="10" fill="#E7201A" transform="matrix(1.0008 0 0 1 137 0)"/><path d="M631.169 436.675C629.738 438.891 627.26 437.124 626.522 440.911 625.643 445.428 625.914 468.552 626.718 473.386 628.242 482.484 634.862 482.129 642.39 480.633 640.781 482.933 636.078 483.438 633.525 483.494 607.558 484.036 619.153 456.143 616.189 440.911 615.45 437.124 612.972 438.901 611.542 436.675L631.178 436.675Z" stroke="#FFFFFF" stroke-width="0.935065" stroke-miterlimit="10" fill="#E7201A" transform="matrix(1.0008 0 0 1 137 0)"/><path d="M251.532 450.701 251.532 463.792 246.333 453.563 239.377 451.636 239.377 484.831C240.77 486.87 242.547 487.393 244.978 487.178L244.978 488.104C244.978 488.104 226.286 488.104 226.286 488.104L226.286 487.178C227.576 487.515 230.961 485.832 230.961 484.831L230.961 451.636C223.462 451.328 222.891 454.956 220.759 460.65 220.245 462.025 221.638 463.353 218.805 462.848L218.805 450.701C218.805 450.701 251.523 450.701 251.523 450.701Z" stroke="#FFFFFF" stroke-width="0.935065" stroke-miterlimit="10" fill="#E71F19" transform="matrix(1.0008 0 0 1 137 0)"/><path d="M529.247 508.685C528.873 510.293 526.498 510.153 525.02 511.462 516.867 518.727 517.035 547.583 526.89 553.586 533.81 557.794 538.953 553.203 541.599 546.742 545.695 536.746 545.741 518.409 536.793 510.957 535.25 509.676 533.155 510.218 532.996 508.694 567.285 509.741 558.926 564.929 523.627 554.98 500.624 548.5 504.86 508.881 529.247 508.694Z" stroke="#FFFFFF" stroke-width="0.935065" stroke-miterlimit="10" fill="#E7201A" transform="matrix(1.0008 0 0 1 137 0)"/><path d="M111.273 450.701 110.328 462.848 106.177 454.395C104.26 452.328 101.969 451.318 99.1169 451.636L99.1169 486.234 104.718 487.178 104.718 488.104C104.718 488.104 85.0909 488.104 85.0909 488.104L85.0909 487.178C87.2135 487.908 90.7013 485.925 90.7013 483.896L90.7013 451.636 83.6603 453.478 78.5455 463.792 78.5455 450.701 111.273 450.701Z" stroke="#FFFFFF" stroke-width="0.935065" stroke-miterlimit="10" fill="#E71F19" transform="matrix(1.0008 0 0 1 137 0)"/><path d="M334.753 450.701 334.753 461.913C334.753 461.913 330.022 453.086 330.022 453.086 328.198 451.861 320.802 450.617 319.68 452.179L319.259 486.29C323.86 488.44 330.031 487.505 332.724 482.802L335.679 475.948 336.623 488.095 306.701 488.095C306.514 486.318 309.123 487.543 310.049 486.299 311.059 484.934 311.059 453.852 310.049 452.487 309.132 451.234 306.514 452.469 306.701 450.692L334.753 450.692Z" stroke="#FFFFFF" stroke-width="0.935065" stroke-miterlimit="10" fill="#E71F19" transform="matrix(1.0008 0 0 1 137 0)"/><path d="M179.532 450.701 179.532 461.913C179.532 461.913 174.277 452.674 174.277 452.674L164.459 452.179C163.216 453.927 163.169 486.075 164.702 487.029 169.116 487.58 174.399 487.375 177.129 483.363L180.449 475.948 180.449 488.095C180.449 488.095 151.471 488.095 151.471 488.095 151.284 486.318 153.893 487.543 154.819 486.299 155.829 484.934 155.829 453.852 154.819 452.487 153.902 451.234 151.284 452.469 151.471 450.692L179.523 450.692Z" stroke="#FFFFFF" stroke-width="0.935065" stroke-miterlimit="10" fill="#E71F19" transform="matrix(1.0008 0 0 1 137 0)"/><path d="M213.195 450.701 213.195 461.913C211.549 461.165 212.054 458.004 211.11 456.05 208.809 451.29 202.825 451.421 198.224 451.627L198.636 486.29C200.141 488.459 209.959 487.131 211.194 483.775L214.111 476.892 215.056 488.113 186.069 488.113C185.994 486.645 187.883 487.038 188.799 485.71 190.37 483.447 190.407 454.769 188.93 452.254 188.098 450.842 185.816 452.59 186.069 450.72L213.185 450.72Z" stroke="#FFFFFF" stroke-width="0.935065" stroke-miterlimit="10" fill="#E71F19" transform="matrix(1.0008 0 0 1 137 0)"/><path d="M440.416 606.39C439.611 603.799 430.635 605.221 428.232 605.511 426.698 604.417 426.754 598.077 428.681 597.74 438.461 598.834 449.383 599.087 459.108 597.506L459.687 603.986 458.668 605.885 446.961 604.987 446.961 627.896C446.961 628.186 448.251 629.214 447.896 630.224L439.49 630.224C438.938 628.915 440.425 627.438 440.425 626.961L440.425 606.39Z" fill="#FFFFFF" transform="matrix(1.0008 0 0 1 137 0)"/><path d="M145.87 391.792C146.113 393.616 143.878 392.054 142.953 393.27 140.568 396.411 142.943 421.088 142.261 426.726 145.449 430.083 152.425 428.419 155.09 424.856 156.82 422.537 156.745 418.675 158.952 417.048L158.952 429.195C158.952 429.195 129.974 429.195 129.974 429.195 129.787 427.418 132.396 428.643 133.322 427.399 134.331 426.034 134.331 394.953 133.322 393.588 132.396 392.335 129.787 393.569 129.974 391.792L145.87 391.792Z" stroke="#FFFFFF" stroke-width="0.935065" stroke-miterlimit="10" fill="#E71F19" transform="matrix(1.0008 0 0 1 137 0)"/><path d="M213.195 391.792 210.38 392.727C209.211 393.84 215.776 402.732 216.935 404.444 218.095 406.155 218.702 407.239 219.815 408.904 224.453 415.851 229.325 422.799 234.701 429.195L219.74 429.195 222.555 428.26C224.238 426.661 214.532 416.01 214.111 413.299L211.334 415.169C210.979 414.701 212.138 412.906 211.989 412.027 211.231 407.389 201.161 396.346 198.234 391.792L213.195 391.792Z" stroke="#FFFFFF" stroke-width="0.935065" stroke-miterlimit="10" fill="#E71F19" transform="matrix(1.0008 0 0 1 137 0)"/><path d="M48.6234 475.013C51.7839 474.284 50.0353 477.799 50.7086 479.941 55.5429 495.463 75.2166 485.691 62.1631 474.097 59.0774 471.357 53.8878 469.571 51.4192 466.139 45.3881 457.761 51.5688 449.551 61.2 449.738 64.5756 449.804 68.8769 452.805 70.5694 452.628 71.2893 452.553 70.6161 449.523 72.9351 450.701L72.9351 461.913C72.9351 461.913 67.839 453.46 67.839 453.46 63.9865 449.093 55.7486 450.178 56.1226 456.704 56.6556 465.971 81.7995 470.525 72.9444 483.896 70.4852 487.599 64.6317 489.226 60.3678 489.067 57.1605 488.945 52.3823 486.14 50.9891 486.178 50.3065 486.196 50.9517 489.282 48.6327 488.104L48.6327 475.013Z" stroke="#FFFFFF" stroke-width="0.935065" stroke-miterlimit="10" fill="#E71F19" transform="matrix(1.0008 0 0 1 137 0)"/><path d="M323.532 391.792 319.811 394.121C322.541 397.534 325.169 406.912 327.759 409.624 328.46 410.363 329.349 409.942 330.069 409.558L330.05 425.95 332.883 429.195 317.922 429.195C319.297 427.016 320.671 429.597 321.419 425.716 323.85 413.093 314.462 402.143 308.571 391.792L323.532 391.792Z" stroke="#FFFFFF" stroke-width="0.935065" stroke-miterlimit="10" fill="#E71F19" transform="matrix(1.0008 0 0 1 137 0)"/><path d="M345.974 474.078 346.918 470.347 348.358 473.208 358.13 473.143 353.436 459.126 351.603 460.061C351.603 459.603 351.519 459.117 351.584 458.649 352.099 455.143 354.605 448.476 358.981 450.804L371.866 485.046 374.97 488.104 359.074 488.104 362.777 485.71 359.074 474.078 345.983 474.078Z" stroke="#FFFFFF" stroke-width="0.935065" stroke-miterlimit="10" fill="#E71F19" transform="matrix(1.0008 0 0 1 137 0)"/><path d="M251.532 391.792C251.776 393.616 249.541 392.054 248.615 393.27 247.016 395.373 247.474 420.555 248.755 424.015 250.962 429.99 257.152 429.129 261.809 426.38 264.044 428.559 254.927 430.167 253.87 430.195 244.65 430.448 240.265 425.296 239.386 416.553 238.844 411.139 240.592 398.057 239.264 394.233 238.498 392.026 235.599 393.7 235.636 391.783L251.532 391.783Z" stroke="#FFFFFF" stroke-width="0.935065" stroke-miterlimit="10" fill="#E71F19" transform="matrix(1.0008 0 0 1 137 0)"/><path d="M177.662 391.792C176.709 393.924 174.567 392.858 173.941 396.019 173.202 399.74 173.473 417.002 174.146 421.022 175.25 427.643 178.822 428.896 185.143 428.269 185.395 429.485 183.413 429.765 182.581 429.887 160.71 433.281 166.47 408.941 165.535 395.037L162.701 391.792 177.662 391.792Z" stroke="#FFFFFF" stroke-width="0.935065" stroke-miterlimit="10" fill="#E71F19" transform="matrix(1.0008 0 0 1 137 0)"/><path d="M266.493 450.701C265.306 452.973 265.306 455.003 265.773 457.49 266.811 463.007 273.703 475.48 273.852 480.118 273.89 481.222 272.646 485.738 272.029 486.626 270.711 488.525 268.448 489.198 267.316 486.785 262.94 477.407 260.406 462.034 255.497 453.74 254.356 451.805 252.767 452.263 252.468 450.692L266.493 450.692Z" stroke="#FFFFFF" stroke-width="0.935065" stroke-miterlimit="10" fill="#E71F19" transform="matrix(1.0008 0 0 1 137 0)"/><path d="M288 450.701C288.28 452.44 286.308 451.216 285.391 451.786 282.623 453.535 292.011 472.675 291.75 476.883L294.564 475.49 291.703 488.048 286.962 487.552C284.699 480.567 282.838 473.32 280.435 466.392 280.164 465.616 278.911 465.7 278.705 464.97 277.78 461.679 278.191 457.34 276.087 453.731 274.965 451.805 273.338 452.263 273.048 450.692L288.009 450.692Z" stroke="#FFFFFF" stroke-width="0.935065" stroke-miterlimit="10" fill="#E71F19" transform="matrix(1.0008 0 0 1 137 0)"/><path d="M620.621 284.531C629.458 291.834 616.853 307.749 607.259 302.082 600.807 298.276 604.978 284.493 612.047 283.381 614.356 283.016 618.798 283.025 620.612 284.531Z" fill="#FFFFFF" transform="matrix(1.0008 0 0 1 137 0)"/><path d="M753.99 285.522C763.116 276.798 776.777 290.553 765.36 300.165 753.419 310.226 744.62 294.471 753.99 285.522Z" fill="#FFFFFF" transform="matrix(1.0008 0 0 1 137 0)"/><path d="M599.377 598.451C597.796 608.176 598.049 619.097 599.143 628.878 598.741 631.206 591.868 629.972 590.035 630.234 590.288 628.504 590.961 626.942 591.017 625.147 591.111 622.286 591.709 608.363 589.596 608.007L586.295 608.727 586.295 602.182C586.295 602.182 590.961 602.182 590.961 602.182L590.035 598.451 599.377 598.451Z" fill="#FFFFFF" transform="matrix(1.0008 0 0 1 137 0)"/><path d="M686.338 541.87C686.291 542.272 685.431 546.34 684.477 546.069 684.477 539.682 684.477 533.268 684.421 526.872 684.402 524.964 685.346 523.234 685.309 521.402 685.281 520.092 684.58 514.108 684.281 513.07 683.598 510.695 681.017 510.387 678.848 510.545 677.296 509.386 678.96 508.844 680.241 508.675 683.579 508.245 687.581 508.975 691.013 508.685 690.368 510.302 686.338 511.967 686.338 513.818 686.338 522.421 687.245 533.66 686.338 541.87Z" stroke="#FFFFFF" stroke-width="0.935065" stroke-miterlimit="10" fill="#E7201A" transform="matrix(1.0008 0 0 1 137 0)"/><path d="M595.636 514.753C594.776 509.657 589.063 509.994 589.082 509.143L601.237 508.685C601.929 511.686 599.526 509.788 598.367 511.135 593.85 516.399 599.143 539.617 594.58 549.238 594.131 550.183 592.541 552.034 592.841 549.369 593.888 547.957 595.636 543.245 595.636 541.87 595.636 534.362 596.768 521.448 595.636 514.753Z" stroke="#FFFFFF" stroke-width="0.935065" stroke-miterlimit="10" fill="#E7201A" transform="matrix(1.0008 0 0 1 137 0)"/><path d="M653.601 436.685C653.292 438.33 650.871 438.237 649.795 439.883 646.616 444.726 651.348 466.672 646.56 476.892 645.905 478.286 646.71 479.211 644.26 478.744 648.711 472.862 649.683 443.221 646.223 438.919 644.624 436.928 641.8 438.611 641.464 436.685L653.61 436.685Z" stroke="#FFFFFF" stroke-width="0.935065" stroke-miterlimit="10" fill="#E7201A" transform="matrix(1.0008 0 0 1 137 0)"/><path d="M476.116 625.97C476.116 628.371 474.17 630.318 471.768 630.318 469.367 630.318 467.42 628.371 467.42 625.97 467.42 623.568 469.367 621.622 471.768 621.622 474.17 621.622 476.116 623.568 476.116 625.97Z" fill="#FFFFFF" transform="matrix(1.0008 0 0 1 137 0)"/><path d="M207.809 428.091C208.688 428.681 210.679 427.474 210.39 429.185L198.243 429.185C198.243 429.185 208.061 418.918 208.061 418.918 208.51 421.265 204.891 426.156 207.809 428.091Z" stroke="#FFFFFF" stroke-width="0.935065" stroke-miterlimit="10" fill="#E71F19" transform="matrix(1.0008 0 0 1 137 0)"/><path d="M191.688 396.935C191.595 396.365 190.248 393.419 189.846 393.157 188.472 392.25 185.956 393.606 186.078 391.802L196.354 391.802C196.373 393.307 192.623 393.784 192.623 395.065L192.623 418.909 191.688 418.909C190.912 412.223 192.745 403.312 191.688 396.935Z" stroke="#FFFFFF" stroke-width="0.935065" stroke-miterlimit="10" fill="#E71F19" transform="matrix(1.0008 0 0 1 137 0)"/><path d="M328.208 476.883C326.394 476.191 327.179 473.442 325.449 471.684 323.981 470.188 321.438 470.553 320.727 468.477 322.102 468.337 324.15 468.243 325.169 467.299 326.422 466.13 326.244 462.362 328.208 461.922L328.208 476.883Z" stroke="#FFFFFF" stroke-width="0.935065" stroke-miterlimit="10" fill="#E71F19" transform="matrix(1.0008 0 0 1 137 0)"/><path d="M172.987 476.883C171.238 476.107 171.884 473.573 170.21 471.712 168.798 470.132 167.003 470.048 165.497 468.935 165.525 468.075 168.77 468.393 169.957 467.299 171.201 466.149 171.033 462.352 172.987 461.922L172.987 476.883Z" stroke="#FFFFFF" stroke-width="0.935065" stroke-miterlimit="10" fill="#E71F19" transform="matrix(1.0008 0 0 1 137 0)"/><path d="M265.558 396.935C265.456 396.449 263.782 393.98 263.286 393.597 261.996 392.615 259.845 393.391 259.957 391.802L270.234 391.802C270.252 393.307 266.503 393.784 266.503 395.065L266.503 415.169 265.568 415.169C264.81 409.858 266.606 401.844 265.568 396.935Z" stroke="#FFFFFF" stroke-width="0.935065" stroke-miterlimit="10" fill="#E71F19" transform="matrix(1.0008 0 0 1 137 0)"/><path d="M207.575 476.883C204.948 473.863 204.059 470.899 200.104 468.935 203.666 468.14 205.378 465.578 205.724 461.931 207.257 461.679 206.593 463.194 206.649 464.25 206.874 468.58 206.135 472.647 207.575 476.892Z" stroke="#FFFFFF" stroke-width="0.935065" stroke-miterlimit="10" fill="#E71F19" transform="matrix(1.0008 0 0 1 137 0)"/><path d="M231.896 391.802 224.425 399.273 224.481 393.335 221.62 391.802 231.896 391.802Z" stroke="#FFFFFF" stroke-width="0.935065" stroke-miterlimit="10" fill="#E71F19" transform="matrix(1.0008 0 0 1 137 0)"/><path d="M304.831 450.711C304.308 452.291 302.437 453.067 301.633 454.516 300.605 456.368 300.904 459.36 299.23 460.052 299.081 458.004 299.716 455.377 298.772 453.497 297.659 451.281 294.817 452.581 294.555 450.72L304.831 450.72Z" stroke="#FFFFFF" stroke-width="0.935065" stroke-miterlimit="10" fill="#E71F19" transform="matrix(1.0008 0 0 1 137 0)"/><path d="M344.235 486.103C344.749 486.907 348.012 486.355 347.844 488.095L338.503 488.095C340.429 485.514 342.72 483.064 343.188 479.698 345.385 480.259 343.346 484.7 344.235 486.103Z" stroke="#FFFFFF" stroke-width="0.935065" stroke-miterlimit="10" fill="#E71F19" transform="matrix(1.0008 0 0 1 137 0)"/></g></svg>