<?xml version="1.0" encoding="UTF-8"?>
<svg id="_レイヤー_1" data-name="レイヤー 1" xmlns="http://www.w3.org/2000/svg" viewBox="0 0 317.48 178.58">
  <defs>
    <style>
      .cls-1 {
        fill: #fff;
      }

      .cls-2 {
        fill: #333;
      }

      .cls-2, .cls-3 {
        stroke: #333;
        stroke-linecap: round;
        stroke-linejoin: round;
        stroke-width: 8px;
      }

      .cls-3 {
        fill: none;
      }
    </style>
  </defs>
  <rect class="cls-3" x="120.24" y="29.29" width="93" height="120"/>
  <rect class="cls-2" x="104.24" y="71.29" width="83" height="36"/>
  <g>
    <path class="cls-1" d="M114.91,76.71h8.26c5.58,0,9.86,1.94,9.86,7.89s-4.32,8.33-9.72,8.33h-3.37v8.94h-5.03v-25.16ZM122.97,88.95c3.47,0,5.13-1.46,5.13-4.35s-1.84-3.91-5.3-3.91h-2.86v8.26h3.03Z"/>
    <path class="cls-1" d="M137.02,76.71h6.9c7.68,0,12.44,3.98,12.44,12.48s-4.76,12.68-12.17,12.68h-7.17v-25.16ZM143.62,97.82c4.69,0,7.62-2.52,7.62-8.63s-2.92-8.46-7.62-8.46h-1.56v17.1h1.56Z"/>
    <path class="cls-1" d="M161.07,76.71h15.5v4.18h-10.47v6.56h8.94v4.22h-8.94v10.2h-5.03v-25.16Z"/>
  </g>
</svg>