
<svg width="126" height="72" viewBox="0 0 126 72" fill="none" xmlns="http://www.w3.org/2000/svg">
<path fill-rule="evenodd" clip-rule="evenodd" d="M23.7809 26.0956C28.525 29.6017 36.8941 30.6869 36.9827 30.6984L36.9856 30.6932C37.026 30.6981 37.0644 30.7134 37.0971 30.7377C37.1298 30.7619 37.1556 30.7943 37.1719 30.8316C37.1877 30.8689 37.1934 30.9097 37.1882 30.9499C37.1831 30.9901 37.1674 31.0282 37.1427 31.0603L33.3199 36.0221C33.2897 36.061 33.2481 36.0895 33.201 36.1036C33.1538 36.1178 33.1035 36.1169 33.0568 36.101C28.2529 34.4562 24.1659 31.2004 21.4888 26.8858V35.4052C21.4887 35.4591 21.4697 35.5113 21.4349 35.5525C21.4002 35.5937 21.352 35.6213 21.2989 35.6305L16.6104 36.5265C16.5957 36.5292 16.5808 36.5306 16.5658 36.5305C16.5116 36.5305 16.459 36.5122 16.4166 36.4784C16.3901 36.4571 16.3686 36.4301 16.3539 36.3994C16.3392 36.3688 16.3315 36.3352 16.3313 36.3012V28.5965C9.17788 34.4092 0.502337 35.9278 0.414855 35.9427C0.401632 35.9449 0.388275 35.9461 0.374862 35.9461C0.322045 35.9465 0.270673 35.9289 0.229126 35.8963C0.18758 35.8637 0.158306 35.818 0.146138 35.7666C0.13695 35.7091 0.148528 35.6502 0.178803 35.6004C0.209079 35.5506 0.256042 35.5132 0.311347 35.495C4.84943 33.4353 8.74591 30.1865 11.5879 26.0927H1.56873C1.44603 26.0938 1.32789 26.0463 1.24006 25.9606C1.15223 25.875 1.1018 25.758 1.09984 25.6353V24.8697C1.1018 24.747 1.15223 24.6301 1.24006 24.5444C1.32789 24.4587 1.44603 24.4112 1.56873 24.4123H16.3308V21.5328H11.1322L7.66665 22.2556C7.65068 22.259 7.63441 22.2607 7.61808 22.2607C7.56459 22.2607 7.51262 22.2428 7.47053 22.2098C7.4435 22.1884 7.42164 22.1613 7.40659 22.1303C7.39154 22.0993 7.3837 22.0653 7.38363 22.0308V9.9264C4.54706 12.2181 2.8815 12.763 2.76714 12.7978C2.74431 12.8046 2.7206 12.8081 2.69679 12.8081C2.65741 12.8083 2.61865 12.7986 2.58399 12.7799C2.54934 12.7613 2.51993 12.7342 2.49842 12.7012C2.47131 12.6583 2.45922 12.6076 2.46408 12.5571C2.46895 12.5066 2.49049 12.4591 2.5253 12.4222C5.6554 9.12561 7.73462 4.97275 8.49863 0.491538C8.50243 0.45641 8.51434 0.422642 8.53339 0.392881C8.55244 0.36312 8.57811 0.338182 8.60842 0.320013C8.64565 0.297437 8.68835 0.285568 8.73189 0.285707C8.75959 0.285627 8.78706 0.290481 8.81306 0.300017L14.3719 2.32353C14.4063 2.33594 14.4374 2.35632 14.4624 2.38306C14.4875 2.4098 14.5058 2.44211 14.5159 2.47732C14.5256 2.51239 14.5267 2.54924 14.5193 2.58484C14.5118 2.62044 14.496 2.65375 14.4731 2.682C13.6589 3.67689 12.8813 4.57231 12.138 5.3848C12.1434 5.4011 12.1468 5.41797 12.1482 5.43509V7.27678H16.3977C16.4196 7.25471 16.4457 7.23722 16.4745 7.22534C16.5033 7.21346 16.534 7.20745 16.5652 7.20761H16.8002L20.5425 1.35552C20.5762 1.30385 20.6288 1.26734 20.689 1.25379C20.7492 1.24023 20.8123 1.25069 20.8649 1.28289L23.8627 3.12172C23.897 3.14242 23.9252 3.17175 23.9445 3.20677C23.9639 3.24178 23.9738 3.28126 23.9731 3.32127C23.9678 4.11764 23.7412 4.89684 23.3184 5.57175C22.8368 6.30361 22.1514 6.87846 21.3469 7.22534C21.3753 7.23725 21.4009 7.25473 21.4224 7.27678H30.1408C30.1976 7.27695 30.2535 7.26235 30.3029 7.23438C30.3523 7.20641 30.3936 7.16604 30.4227 7.11726C30.4866 7.01143 30.5893 6.93469 30.7089 6.9034C30.8285 6.87212 30.9556 6.88876 31.0631 6.94975L31.7395 7.33339C31.7924 7.36308 31.8389 7.403 31.8762 7.45082C31.9136 7.49864 31.941 7.55341 31.957 7.61195C31.973 7.67048 31.9771 7.73162 31.9692 7.79178C31.9613 7.85193 31.9416 7.90992 31.9111 7.96236C31.7277 8.26847 31.4679 8.52165 31.1571 8.69707C30.8464 8.87249 30.4953 8.96412 30.1385 8.96296H21.4876V11.469H28.7829C28.8397 11.4691 28.8956 11.4545 28.9451 11.4265C28.9946 11.3986 29.036 11.3583 29.0653 11.3095C29.1074 11.2395 29.1669 11.1816 29.2381 11.1415C29.3092 11.1014 29.3896 11.0805 29.4713 11.0808C29.5532 11.0811 29.6337 11.1023 29.7051 11.1425L30.3815 11.5262C30.4346 11.5559 30.4811 11.5959 30.5186 11.6438C30.556 11.6917 30.5834 11.7466 30.5994 11.8053C30.6156 11.8635 30.6198 11.9245 30.6117 11.9844C30.6037 12.0444 30.5835 12.1021 30.5525 12.154C30.3693 12.4596 30.1099 12.7124 29.7997 12.8877C29.4895 13.063 29.1391 13.1548 28.7829 13.154H21.4876V15.6544H28.7829C28.8397 15.6545 28.8956 15.6399 28.9451 15.6119C28.9946 15.584 29.036 15.5436 29.0653 15.4949C29.1075 15.4249 29.167 15.3671 29.2381 15.3271C29.3093 15.287 29.3896 15.266 29.4713 15.2662C29.5532 15.2663 29.6337 15.2873 29.7051 15.3274L30.3815 15.711C30.4346 15.7407 30.4811 15.7807 30.5186 15.8286C30.556 15.8765 30.5834 15.9314 30.5994 15.9901C30.6156 16.0483 30.6198 16.1093 30.6117 16.1693C30.6037 16.2292 30.5835 16.2869 30.5525 16.3388C30.3694 16.6445 30.1101 16.8974 29.7999 17.0728C29.4897 17.2482 29.1392 17.3401 28.7829 17.3394H21.4876V19.8444H30.1385C30.1953 19.8446 30.2512 19.8299 30.3006 19.802C30.35 19.774 30.3913 19.7336 30.4204 19.6848C30.4843 19.579 30.587 19.5023 30.7066 19.471C30.8262 19.4397 30.9533 19.4563 31.0608 19.5173L31.7372 19.901C31.7901 19.9307 31.8366 19.9706 31.8739 20.0184C31.9113 20.0662 31.9387 20.121 31.9547 20.1796C31.9707 20.2381 31.9748 20.2992 31.9669 20.3594C31.959 20.4195 31.9393 20.4775 31.9088 20.5299C31.7253 20.8359 31.4655 21.089 31.1547 21.2643C30.844 21.4397 30.4931 21.5312 30.1363 21.53H21.4853V24.4094H34.1026C34.1595 24.4095 34.2154 24.3949 34.2649 24.3669C34.3144 24.339 34.3558 24.2986 34.3851 24.2499C34.449 24.1439 34.5518 24.0671 34.6716 24.0359C34.7914 24.0047 34.9186 24.0216 35.0261 24.0829L35.7013 24.466C35.7542 24.4957 35.8007 24.5356 35.838 24.5834C35.8754 24.6313 35.9028 24.686 35.9188 24.7446C35.9347 24.8031 35.9389 24.8642 35.931 24.9244C35.9231 24.9846 35.9034 25.0425 35.8729 25.095C35.6897 25.4007 35.4304 25.6536 35.1202 25.829C34.81 26.0044 34.4596 26.0963 34.1032 26.0956H23.7809ZM12.1511 15.6556H16.3336V13.154H12.1511V15.6556ZM12.1511 11.4662H16.3336V8.96296H12.1511V11.4662ZM16.3336 17.34H12.1511V19.8455H16.3336V17.34ZM105.431 23.9766C105.371 23.9633 105.319 23.9267 105.285 23.8748L101.382 17.7637V34.9827C101.383 35.0379 101.363 35.0915 101.327 35.1336C101.292 35.1756 101.242 35.2032 101.187 35.2114L96.4986 35.9993C96.4856 36.0016 96.4724 36.0027 96.4592 36.0027C96.4042 36.0028 96.3508 35.9838 96.3082 35.949C96.2822 35.9276 96.2612 35.9007 96.2468 35.8703C96.2324 35.8398 96.2248 35.8066 96.2247 35.7729V21.5082C94.3001 23.07 92.2325 24.447 90.0496 25.621C90.0169 25.6368 89.9812 25.645 89.9449 25.645C89.9075 25.6451 89.8705 25.6363 89.8371 25.6193C89.8037 25.6023 89.7748 25.5776 89.7529 25.5473C89.7211 25.502 89.7067 25.4468 89.7125 25.3918C89.7183 25.3369 89.7438 25.2859 89.7843 25.2482C95.0291 20.4133 98.9389 13.7024 100.985 9.71255H91.3869C91.3256 9.71316 91.2665 9.68945 91.2226 9.64659C91.1786 9.60373 91.1535 9.54523 91.1526 9.48386V8.33571C91.1535 8.27434 91.1786 8.21584 91.2226 8.17298C91.2665 8.13012 91.3256 8.10641 91.3869 8.10702H96.2247V1.95644C96.2256 1.89507 96.2508 1.83657 96.2947 1.79371C96.3387 1.75085 96.3978 1.72714 96.4592 1.72775L101.148 1.08963C101.209 1.08902 101.268 1.11273 101.312 1.15559C101.356 1.19845 101.381 1.25699 101.382 1.31836V8.10988H101.786C102.308 7.02866 102.583 6.37283 102.594 6.34539C102.608 6.31309 102.629 6.2843 102.655 6.26114C102.682 6.23799 102.713 6.22106 102.747 6.21159C102.768 6.20593 102.789 6.20304 102.811 6.203C102.86 6.20292 102.908 6.2181 102.949 6.24645L107.237 9.28145C107.285 9.31599 107.318 9.36789 107.329 9.42625C107.34 9.4846 107.327 9.54484 107.294 9.59421C105.586 12.1186 103.663 14.4907 101.546 16.6842C101.755 16.6756 101.956 16.6705 102.155 16.6705C105.112 16.6705 107.242 17.5573 108.314 19.236C108.779 19.9792 109.028 20.8369 109.034 21.7135C109.035 21.7535 109.025 21.7929 109.006 21.8279C108.987 21.8629 108.959 21.8923 108.924 21.9131L105.608 23.9474C105.571 23.9707 105.528 23.983 105.483 23.9829C105.466 23.9828 105.448 23.9807 105.431 23.9766ZM125.63 33.5761L124.954 33.193C124.847 33.1317 124.72 33.1148 124.6 33.146C124.48 33.1772 124.377 33.254 124.314 33.36C124.284 33.4086 124.243 33.4489 124.194 33.4769C124.144 33.5048 124.089 33.5195 124.032 33.5195H118.33V15.8054H123.476C123.832 15.806 124.183 15.7142 124.493 15.5389C124.803 15.3636 125.062 15.1108 125.245 14.8053C125.276 14.7529 125.295 14.6949 125.303 14.6347C125.311 14.5746 125.307 14.5135 125.291 14.455C125.275 14.3964 125.248 14.3416 125.21 14.2938C125.173 14.246 125.126 14.2061 125.074 14.1764L124.398 13.7927C124.326 13.7525 124.245 13.7313 124.163 13.731C124.082 13.7309 124.001 13.7518 123.93 13.7919C123.859 13.832 123.8 13.8898 123.757 13.9597C123.728 14.0084 123.687 14.0487 123.638 14.0767C123.588 14.1046 123.532 14.1193 123.476 14.1192H118.33V1.31836C118.329 1.25699 118.303 1.19845 118.26 1.15559C118.216 1.11273 118.156 1.08902 118.095 1.08963L113.407 1.72775C113.345 1.72714 113.286 1.75085 113.242 1.79371C113.198 1.83657 113.173 1.89507 113.172 1.95644V14.1215H106.33C106.208 14.1204 106.089 14.1679 106.002 14.2536C105.914 14.3393 105.863 14.4562 105.861 14.5789V15.3445C105.863 15.4672 105.914 15.5841 106.002 15.6698C106.089 15.7555 106.208 15.803 106.33 15.802H113.172V33.5161H104.939C104.816 33.515 104.698 33.5625 104.61 33.6482C104.522 33.7339 104.472 33.8508 104.47 33.9735V34.7391C104.472 34.8618 104.522 34.9787 104.61 35.0644C104.698 35.1501 104.816 35.1976 104.939 35.1965H124.025C124.381 35.1971 124.732 35.1052 125.042 34.9298C125.352 34.7544 125.611 34.5015 125.794 34.1959C125.825 34.1436 125.845 34.0856 125.853 34.0253C125.861 33.9651 125.857 33.9038 125.841 33.8451C125.825 33.7864 125.798 33.7316 125.76 33.6838C125.723 33.6361 125.676 33.5963 125.623 33.567L125.63 33.5761ZM66.2643 24.4306C69.4394 29.7298 80.7377 31.3719 80.8252 31.3828L80.8263 31.3753C80.8668 31.3803 80.9053 31.3957 80.938 31.4201C80.9706 31.4444 80.9964 31.4769 81.0127 31.5143C81.0286 31.5515 81.0343 31.5923 81.0293 31.6325C81.0243 31.6727 81.0087 31.7108 80.9841 31.743L77.5249 36.7248C77.5029 36.7534 77.4746 36.7766 77.4421 36.7924C77.4097 36.8083 77.374 36.8165 77.3379 36.8163C77.3123 36.8158 77.2868 36.8116 77.2624 36.8037C70.0026 34.5852 65.9156 28.1374 64.3895 25.2213C60.1179 35.6655 46.2617 36.2777 45.7579 36.3L45.7451 36.3006H45.7325C45.6804 36.3011 45.6295 36.2842 45.5881 36.2525C45.5466 36.2208 45.517 36.1761 45.5038 36.1256C45.4909 36.0733 45.4969 36.0181 45.5208 35.9698C45.5446 35.9214 45.5848 35.8831 45.6342 35.8615C56.009 31.2467 59.0371 26.5158 59.9051 24.426H46.1425C46.0198 24.4271 45.9016 24.3796 45.8138 24.2939C45.726 24.2082 45.6756 24.0912 45.6736 23.9685V23.2035C45.6756 23.0808 45.726 22.9639 45.8138 22.8782C45.9016 22.7925 46.0198 22.745 46.1425 22.7461H51.0414V13.6355C51.0415 13.5826 51.0598 13.5313 51.0934 13.4905C51.127 13.4496 51.1737 13.4216 51.2255 13.4113L55.5213 12.4896C55.5379 12.4862 55.5547 12.4845 55.5716 12.4845C55.6248 12.4846 55.6764 12.5023 55.7186 12.5348C55.7457 12.5561 55.7677 12.5832 55.7828 12.6142C55.798 12.6452 55.8059 12.6793 55.806 12.7138V13.592H60.3082V9.73254C60.3091 9.67117 60.3342 9.61264 60.3782 9.56978C60.4221 9.52692 60.4812 9.50321 60.5426 9.50382H65.2311C65.2925 9.50321 65.3516 9.52692 65.3956 9.56978C65.4395 9.61264 65.4647 9.67117 65.4656 9.73254V13.592H69.9751C69.9836 13.5479 70.0049 13.5072 70.0363 13.475C70.0677 13.4429 70.1079 13.4207 70.1519 13.4113L74.4476 12.4896C74.4641 12.4862 74.481 12.4845 74.4979 12.4845C74.5511 12.4846 74.6027 12.5023 74.6448 12.5348C74.672 12.5561 74.6939 12.5832 74.7091 12.6142C74.7242 12.6452 74.7322 12.6793 74.7323 12.7138V22.745H79.1636C79.2203 22.745 79.2761 22.7303 79.3255 22.7023C79.3749 22.6744 79.4162 22.6341 79.4454 22.5854C79.4876 22.5155 79.5472 22.4578 79.6184 22.4177C79.6895 22.3776 79.7698 22.3566 79.8514 22.3567C79.9339 22.3566 80.015 22.3783 80.0864 22.4196L80.7617 22.8027C80.8147 22.8323 80.8614 22.8721 80.8989 22.92C80.9364 22.9678 80.964 23.0226 80.9801 23.0811C80.9961 23.1395 81.0001 23.2005 80.9919 23.2604C80.9837 23.3203 80.9636 23.378 80.9326 23.43C80.7496 23.7356 80.4903 23.9884 80.1802 24.1638C79.8702 24.3392 79.5198 24.4311 79.1636 24.4306H66.2643ZM65.4645 22.7387H69.9666V15.2759H65.4645V22.7387ZM60.3094 15.2684H55.8072V22.7387H60.3094V15.2684ZM46.1425 7.58327H54.3086V11.7967C54.3087 11.8312 54.3166 11.8652 54.3318 11.8962C54.3469 11.9272 54.3689 11.9543 54.3961 11.9756C54.438 12.0085 54.4897 12.0264 54.543 12.0265C54.5599 12.0266 54.5768 12.0247 54.5933 12.0208L58.8891 11.0997C58.941 11.0894 58.9878 11.0613 59.0213 11.0203C59.0549 10.9793 59.0732 10.928 59.0731 10.875V7.58327H66.5811V11.7967C66.5813 11.8312 66.5892 11.8652 66.6044 11.8962C66.6195 11.9272 66.6415 11.9543 66.6686 11.9756C66.7104 12.0087 66.7622 12.0266 66.8155 12.0265C66.8323 12.0266 66.849 12.0247 66.8653 12.0208L71.1611 11.0997C71.2131 11.0895 71.26 11.0615 71.2937 11.0205C71.3274 10.9795 71.3458 10.9281 71.3457 10.875V7.58327H79.1636C79.5199 7.58384 79.8702 7.49194 80.1803 7.31655C80.4903 7.14116 80.7496 6.88828 80.9327 6.58267C80.9637 6.53083 80.9838 6.47325 80.992 6.41341C81.0001 6.35357 80.9961 6.2927 80.9801 6.23445C80.9641 6.17576 80.9365 6.12086 80.899 6.07294C80.8615 6.02503 80.8148 5.98509 80.7617 5.95544L80.0864 5.57177C79.9788 5.51076 79.8516 5.49414 79.7319 5.52542C79.6123 5.55671 79.5094 5.63344 79.4454 5.73932C79.4163 5.78802 79.375 5.8283 79.3256 5.85626C79.2762 5.88422 79.2204 5.8989 79.1636 5.89884H71.348V1.13138C71.3478 1.09688 71.3399 1.06288 71.3247 1.03188C71.3096 1.00089 71.2877 0.973722 71.2605 0.95242C71.2184 0.919872 71.1668 0.902171 71.1136 0.902097C71.0967 0.90211 71.0798 0.903853 71.0633 0.907262L66.7675 1.82896C66.7156 1.83927 66.669 1.86721 66.6354 1.90808C66.6018 1.94894 66.5834 2.00019 66.5834 2.05308V5.89884H59.0754V1.13138C59.0753 1.09688 59.0673 1.06288 59.0522 1.03188C59.037 1.00089 59.0151 0.973722 58.988 0.95242C58.9604 0.931105 58.9285 0.916038 58.8946 0.908239C58.8606 0.90044 58.8254 0.900107 58.7913 0.907262L54.4955 1.82896C54.4435 1.83916 54.3967 1.86706 54.363 1.90794C54.3294 1.94881 54.3109 2.00011 54.3108 2.05308V5.89884H46.1448C46.0221 5.89776 45.9039 5.94524 45.8161 6.03093C45.7283 6.11662 45.6779 6.23356 45.6759 6.35625V7.12185C45.6779 7.24454 45.7283 7.36148 45.8161 7.44717C45.9039 7.53286 46.0221 7.58033 46.1448 7.57926L46.1425 7.58327ZM53.2508 48.6955C53.2601 48.7299 53.2664 48.7651 53.2697 48.8006L53.2674 48.7938C53.2674 48.8224 53.2737 48.9367 53.2737 48.9367L53.2799 49.0545L53.2787 49.0606L53.2764 49.0737L53.2684 49.1178L53.2647 49.1372L53.2629 49.1458L53.2611 49.154C53.2565 49.1723 53.1993 49.2781 53.1993 49.2781L53.137 49.3587L53.0689 49.4456L52.9695 49.5325L52.87 49.6383L52.7893 49.7246L52.7087 49.8241L52.6407 49.9173L52.5721 50.0317L52.5104 50.1558L52.4732 50.2736L52.436 50.7075L52.4297 50.9557V51.6132L52.436 53.4183L52.4549 54.8478L52.4921 56.5533L52.5229 57.7758L52.5292 58.9114L52.5229 58.9234L52.5418 61.4918L52.5664 63.836L52.5973 64.76V66.23L52.5401 67.0677L52.5023 67.3536L52.4715 67.5148L52.4286 67.7567L52.3714 67.9368L52.3279 68.1043L52.2537 68.3645L52.1604 68.5509L52.0609 68.731L51.9123 69.01L51.7693 69.2147L51.6144 69.4251L51.428 69.6538L51.2793 69.7716L51.1243 69.9083L50.9529 70.026L50.7356 70.1936L50.5309 70.3303L50.3136 70.4669L50.2989 70.4731C50.2561 70.4914 50.1328 70.5439 50.1026 70.5538C50.066 70.5658 49.9168 70.6281 49.9168 70.6281L49.6995 70.715L49.4577 70.7585L49.2341 70.8157L48.9985 70.8585L48.7996 70.9026L48.465 70.9392L48.0368 70.9643L47.5651 70.9769L47.0939 70.958L46.8892 70.9523L46.5971 70.9335L46.3369 70.9083L45.9898 70.8585L45.5616 70.7659L45.1768 70.6516L44.9161 70.5589L44.5158 70.348L44.1561 70.1621L43.7903 69.9134L43.5415 69.7213L43.2379 69.4417L42.8902 69.0203L42.6667 68.6601L42.4871 68.3067L42.363 67.9282L42.3059 67.6057L42.2436 67.289L42.219 67.0162L42.1755 66.4267L42.1818 66.0608L42.207 64.9876L42.2007 64.2311L42.2498 62.4192L42.2561 61.7554L42.275 59.8822L42.3122 57.4316L42.3802 54.2994L42.4111 51.2725V50.5772L42.3991 50.3851L42.3745 50.2301L42.3367 50.1255L42.2933 50.0374L42.2498 49.9448L42.1818 49.8458L42.0578 49.7092L41.9399 49.5851L41.841 49.4485L41.7536 49.3433L41.6855 49.2066L41.6483 49.1197L41.6358 48.9893V48.8778L41.6546 48.7721L41.7289 48.6005L41.8433 48.4633L41.9731 48.3335L42.1223 48.2586L42.3333 48.1717L42.562 48.11L42.8479 48.0791L43.4003 48.0665L44.442 48.0728L45.1059 48.0665L45.5633 48.0539H45.9973L46.4547 48.1111L46.7274 48.1609L46.9132 48.2289L47.0316 48.2786L47.162 48.3901L47.2677 48.5394L47.3483 48.7006L47.3976 48.8721V49.1637L47.3295 49.2947L47.1991 49.4874L47.0877 49.5926L46.951 49.7349L46.8395 49.8596L46.7526 49.9837L46.6782 50.1381L46.6411 50.2747L46.6159 50.4233L46.5793 51.2553L46.573 51.9986L46.5793 53.1284L46.517 54.6413L46.5233 55.5162L46.5296 57.3401L46.5416 59.275L46.5542 60.2304L46.5605 62.135L46.5479 63.1345L46.5353 65.1505L46.5416 65.951L46.5479 66.5342L46.5913 66.7447L46.6485 66.9493L46.7165 67.1289L46.7789 67.2535L46.8658 67.377L46.9229 67.4576L46.991 67.5383L47.078 67.6189L47.1774 67.6875C47.2088 67.6964 47.2382 67.7109 47.2643 67.7304C47.3007 67.7578 47.3403 67.7806 47.3821 67.7984L47.5119 67.8425L47.7229 67.8916L47.915 67.9236L48.1386 67.9042L48.3427 67.8607L48.5354 67.7984L48.7269 67.7178L48.8945 67.5943L49.0374 67.4576L49.1369 67.3399L49.2415 67.1912L49.3347 66.9368L49.3919 66.6766L49.4291 66.4159L49.4536 66.0505L49.4725 65.6034L49.4788 65.0453L49.4914 63.6679L49.4971 62.4523L49.4725 60.8765V58.3036L49.4914 56.4115L49.5034 54.3583L49.4914 52.6647L49.4971 51.0209L49.4536 50.4691L49.4353 50.2707L49.3982 50.1403L49.341 49.9917L49.2838 49.8676L49.2095 49.7681L49.1231 49.688L48.9676 49.5331L48.8996 49.4582L48.8315 49.3593L48.7818 49.2655L48.7321 49.1477L48.7132 49.0494L48.7075 48.8744L48.7321 48.7258L48.7755 48.5948L48.8499 48.5085L48.9642 48.4153L49.1072 48.3347L49.2741 48.2477L49.5285 48.1729L49.851 48.1157L50.7818 48.0785L51.3405 48.0659L51.8677 48.0905L52.2645 48.1345L52.5378 48.2152L52.7665 48.2838L52.9283 48.3695L53.0833 48.5005L53.1639 48.5811L53.2508 48.6955ZM65.6394 64.7189L65.5954 64.5571L65.5148 64.421L65.453 64.3335L65.3781 64.2592L65.2603 64.1848L65.1546 64.1225L65.043 64.0734L64.9316 64.067L64.832 64.0482L64.7263 64.0545L64.6274 64.0482L64.5033 64.0545L64.3975 64.0854L64.3043 64.1225L64.2237 64.1603L64.1242 64.21L64.0253 64.278L63.9258 64.3713L63.8143 64.489L63.6657 64.632L63.5513 64.7806L63.4335 64.9522L63.3032 65.1237L63.1853 65.3044L63.0053 65.5708L62.8131 65.8435L62.5958 66.1472L62.4535 66.3644L62.2179 66.644L62.0252 66.8796L61.8829 67.0346L61.7279 67.2061L61.4672 67.4165L61.2127 67.584L60.9217 67.7333L60.6673 67.8202L60.4065 67.8819L60.1401 67.9128H59.9228L59.7124 67.8756L59.5757 67.8139L59.4706 67.7396L59.3407 67.6338L59.2476 67.4914L59.1732 67.293L59.1481 67.1135L59.1292 66.8098L59.1172 65.5314V63.776L59.1361 61.4186L59.1732 59.6387L59.1978 59.3528L59.2784 59.1669C59.2784 59.1669 59.3288 59.0434 59.3711 59.0372C59.4134 59.0309 59.5106 58.9177 59.514 58.9131L59.6936 58.8885L59.96 58.8822L60.1212 58.9131L60.3259 59L60.605 59.1675L61.0017 59.5106L61.3306 59.92L61.7525 60.4163L62.0876 60.8383L62.4409 61.1733L62.6891 61.3597L62.7948 61.4215L62.9252 61.4786L63.0744 61.5101L63.198 61.5158L63.3163 61.5284L63.4404 61.4969L63.5708 61.4535L63.6702 61.4106L63.7508 61.3609L63.8652 61.2671L63.9516 61.1745L64.0202 61.0504L64.0773 60.8949L64.1019 60.7279C64.1019 60.7279 64.1082 60.597 64.1145 60.5598C64.1149 60.4935 64.1107 60.4272 64.1019 60.3614L64.0401 60.1006L63.983 59.8588L63.8961 59.5609L63.7817 59.2012L63.6759 58.8536L63.4158 58.1715L63.167 57.4854L62.944 56.853L62.5907 56.0091L62.4415 55.6928L62.3483 55.5002L62.2059 55.2892L62.0441 55.1342L61.9452 55.0473L61.8085 54.9667L61.6844 54.9044L61.5478 54.8678L61.3985 54.8546L61.2436 54.8735L61.1069 54.8855L61.0075 54.9295L60.9086 54.9867L60.7782 55.073L60.6787 55.1788L60.5798 55.2972L60.4986 55.4275L60.4305 55.5385L60.3436 55.7186L60.2195 55.8901L60.1081 56.0142L59.9782 56.0948L59.8068 56.1377L59.6513 56.1194L59.5369 56.0885L59.4225 55.9896L59.3419 55.8404L59.2796 55.6797L59.2361 55.5185L59.2178 55.3258L59.199 55.1273L59.2115 53.6819L59.2424 52.1559L59.2859 51.1141L59.3042 50.8968L59.3613 50.6984C59.3613 50.6984 59.3808 50.6121 59.4294 50.6058C59.478 50.5995 59.5386 50.4983 59.5409 50.4943L59.6712 50.4508L59.8262 50.4199L59.9977 50.4262L60.271 50.4697L60.4814 50.5812L60.7793 50.7607L61.2133 51.1204L61.995 52.0575L62.6279 52.9941L62.8944 53.4343L63.1922 53.8312L63.5021 54.1479L63.7503 54.3154L63.943 54.4212L64.154 54.4641L64.4833 54.4704L64.6691 54.3898L64.8372 54.3154L64.9613 54.1914L65.0728 54.0736L65.1534 53.9301L65.2529 53.583L65.2649 53.3223L65.2529 52.9935L65.2032 52.5778L65.1163 52.2056L65.0174 51.7962L64.8933 51.3622L64.7257 50.7293L64.5147 49.7984L64.1986 48.7252L64.043 48.2226L63.975 48.0551L63.8818 47.9247L63.7577 47.7887L63.6084 47.6892L63.4409 47.6023L63.2122 47.5451L62.9949 47.5262L62.7405 47.5577L62.5358 47.6508L62.3563 47.7435L62.1516 47.8367L61.9469 47.9053L61.7983 47.9299L61.3454 47.9545L60.6752 47.9419L59.932 47.9236H57.7547L56.2286 47.9362L55.4967 47.9299L55.0622 47.9482L54.814 48.0053L54.5967 48.0677L54.3921 48.1729L54.2434 48.3095L54.1376 48.4811L54.0804 48.6429L54.0559 48.8476V49.0191L54.093 49.1683L54.1502 49.2741L54.2308 49.3919L54.3051 49.5062L54.4166 49.6235L54.531 49.7607L54.6185 49.8968L54.6757 50.0146L54.7197 50.1386L54.8066 50.4857L54.8557 51.1678L54.85 51.4406L54.8557 51.8877L54.8375 53.9907L54.8003 55.2749L54.7877 57.7495L54.7443 58.8599V62.2334L54.726 65.5497L54.7197 68.0083L54.7071 68.2565L54.6699 68.3988L54.6128 68.5601L54.5195 68.715L54.4326 68.8391L54.2777 69.0003L54.1845 69.0998L54.0787 69.2302L54.017 69.348L53.9547 69.5035L53.93 69.6647V69.8265L53.9918 69.9815L54.0604 70.0993L54.1662 70.2176L54.3023 70.3474L54.4578 70.4406L54.7122 70.5458L55.7791 70.6207L57.857 70.639L59.7061 70.6516L61.5175 70.6087L61.9206 70.6579L62.2556 70.7151L62.5415 70.79L62.7777 70.9078L62.9269 70.9701L63.1688 71.0273L63.3798 71.0524L63.541 71.0273C63.541 71.0273 63.6959 70.9781 63.7125 70.9781C63.7431 70.9656 63.772 70.949 63.7983 70.9289C63.8147 70.917 63.8318 70.9063 63.8497 70.8969C63.9079 70.8543 63.9639 70.8087 64.0173 70.7602L64.1288 70.6053L64.3152 70.2886L64.4141 70.0221L64.6685 69.2216L64.9848 68.0735L65.2706 67.0443L65.4993 66.2192L65.6171 65.7418L65.6789 65.3758L65.6857 65.0465L65.6732 64.8795L65.6394 64.7189ZM40.757 48.3233L40.8256 48.4719L40.8456 48.6269L40.8519 48.8378L40.8147 48.9991L40.7713 49.1135L40.6655 49.2621L40.5848 49.3616L40.4362 49.5165L40.3184 49.6595L40.2132 49.8144L40.1446 49.9688L40.0829 50.3164L40.0639 52.1713L40.0577 55.1617L40.0331 57.9091L40.0268 60.4529V63.3312L40.0457 65.5142L40.0268 66.8482L40.0142 67.8842L40.0268 68.1632L40.0891 68.3617L40.1572 68.548L40.2252 68.7093L40.3613 68.87L40.4797 69.0066L40.5786 69.137L40.6534 69.2547L40.7152 69.3914L40.7461 69.5595V69.7139L40.6889 69.9008L40.5894 70.0558L40.4408 70.2107L40.2978 70.3165L40.0806 70.3909L39.7375 70.4406L39.0862 70.4778L38.013 70.503L36.7848 70.4903L35.9598 70.4589L35.631 70.4223L35.3948 70.3846C35.3281 70.3519 35.2638 70.3147 35.2022 70.2731C35.1549 70.2347 35.1053 70.1994 35.0535 70.1673L34.9294 70.0249L34.8488 69.9071L34.8173 69.7516L34.8053 69.6087L34.8362 69.4846L34.8934 69.3662L34.9552 69.2519L35.0295 69.1341L35.1101 69.0472L35.2279 68.9294L35.352 68.8236L35.4389 68.7184L35.5258 68.6252L35.5755 68.5326L35.6436 68.4451L35.6744 68.2736L35.6934 67.9574L35.7059 66.1026L35.6934 63.4101L35.6807 61.2145V60.3151L35.6499 59.9863L35.6001 59.8502L35.551 59.7759L35.4766 59.7136L35.4017 59.677L35.3028 59.6524L35.0924 59.6455L34.4348 59.6581L34.2113 59.6707L34.0066 59.7324L33.9077 59.8005L33.8396 59.8628L33.8088 59.9926L33.7968 60.2156L33.7716 60.8119L33.747 61.7485V63.9504L33.7653 65.154L33.7533 66.3198L33.7653 66.8653V67.6086L33.7779 68.1118L33.7899 68.3719L33.8151 68.5435L33.8768 68.6578L33.9637 68.8065L34.0815 68.9551L34.1993 69.0855L34.2987 69.1787L34.3668 69.253L34.4291 69.34L34.4789 69.4451L34.5097 69.5635L34.4852 69.8117L34.3983 70.0226L34.305 70.1593L34.3002 70.164C34.2781 70.1854 34.1889 70.272 34.1552 70.2776C34.108 70.2999 34.0643 70.329 34.0255 70.364C33.9624 70.3949 33.8958 70.4179 33.8271 70.4326C33.7592 70.4449 33.6926 70.464 33.6286 70.4898L33.3056 70.5024H32.9053L32.4154 70.5081L31.6274 70.5207L29.9464 70.5081L29.5679 70.4646L29.4003 70.4074L29.1522 70.3268L28.9659 70.2022L28.8235 70.097L28.7239 69.9357L28.6616 69.7865L28.6245 69.5755L28.6302 69.3954L28.6805 69.2279L28.7486 69.1032L28.8355 68.9854L28.9224 68.9111L29.0156 68.8122L29.1019 68.731L29.2163 68.6075L29.2906 68.4834L29.365 68.285L29.4147 68.1135L29.4519 67.5926L29.4393 65.2484L29.4329 64.1048L29.4204 61.617L29.4147 59.6815L29.4084 58.1864V56.2823L29.4147 54.6322L29.3958 51.9209L29.4147 51.0095L29.3958 50.5629L29.3586 50.2902L29.3215 50.054L29.2346 49.8865L29.0859 49.7007L28.9618 49.5709L28.8378 49.4159L28.7445 49.273L28.6828 49.1014L28.6514 48.8968L28.6702 48.6915L28.7274 48.52L28.7846 48.4147L28.8898 48.2901L29.0207 48.1477L29.2626 48.0294L29.4861 47.9722L29.8292 47.9099L30.4582 47.8853L31.3267 47.879L32.1078 47.8916L33.0511 47.879L33.6092 47.9041L33.9254 47.9533L34.0809 48.0276L34.2176 48.1209L34.3354 48.2266L34.4348 48.3444L34.5029 48.4811L34.5463 48.6177L34.5778 48.7978V48.8905L34.5652 48.9654L34.5081 49.0894L34.4577 49.1826L34.3651 49.3067L34.2656 49.4245L34.1226 49.5674L33.9865 49.7224L33.9059 49.859L33.8253 50.026L33.7945 50.237L33.7693 50.7516L33.7573 51.2725L33.7693 52.0358L33.7636 53.308L33.7693 54.7157L33.7636 55.5465L33.7819 56.2538L33.8128 56.4253L33.8505 56.5494L33.9243 56.6357L33.9986 56.7106L34.1129 56.7786L34.4103 56.8158L34.8259 56.8341L35.1976 56.8032L35.3034 56.7661L35.4023 56.7289L35.4949 56.6672L35.5635 56.574L35.6316 56.4499L35.6624 56.2886L35.6934 55.8798L35.6807 55.1165L35.6934 54.1982L35.6871 52.8774L35.6807 52.2485L35.6934 51.368V50.6355L35.675 50.3565L35.6499 50.1644L35.607 50.0031L35.5075 49.8236L35.2908 49.5377L35.2033 49.4382L35.1107 49.3393L35.0232 49.1964L34.9495 49.0597L34.9117 48.9167L34.8934 48.8024L34.8997 48.648V48.5668L34.9569 48.449L35.0249 48.3496L35.0935 48.2626L35.1868 48.1695L35.2737 48.1077L35.3977 48.0328L35.5653 47.9756L35.9249 47.8818L36.2108 47.8698L36.7254 47.8327L37.2525 47.8264H38.5482L39.6214 47.8636L40.1177 47.9133L40.2669 47.9504L40.4156 48.0128L40.5522 48.0866L40.6575 48.1923L40.757 48.3233ZM27.7926 62.051L27.7119 61.4993L27.6547 61.1516L27.593 60.8165L27.5187 60.5187L27.4129 60.2276L27.171 59.669L27.0161 59.2842L26.8486 58.8937L26.6873 58.5706L26.5072 58.2922L26.3705 58.0743L26.1035 57.7147L25.8497 57.3928L25.5272 57.0263L24.8879 56.4179L24.6649 56.2195L24.367 55.9588L24.0131 55.686L23.7158 55.451L23.3247 55.1589L22.7604 54.7186L22.4996 54.5145L22.1526 54.2034L21.9416 53.949L21.8175 53.7443L21.6683 53.4904L21.5259 53.2428L21.3544 52.8883L21.3115 52.6716L21.2989 52.5001L21.2926 52.3286L21.2738 52.081L21.2618 51.826L21.2738 51.615L21.3172 51.4355L21.3544 51.2245L21.4167 51.0078L21.4739 50.8214L21.5545 50.6721L21.6168 50.5486C21.6168 50.5486 21.6786 50.4251 21.6969 50.4251C21.7445 50.392 21.7882 50.3537 21.8272 50.3108C21.8666 50.2685 21.9101 50.2302 21.957 50.1964C21.9986 50.1799 22.0383 50.159 22.0754 50.1341L22.2178 50.0849L22.4161 50.0592L22.6209 50.0849L22.7758 50.1524L22.9616 50.2828L23.0611 50.4126L23.1755 50.5366L23.3436 50.7911L23.4923 51.0449L23.6723 51.4172L23.821 51.7276L23.9514 52.0187L24.0383 52.2114L24.1001 52.3829L24.1807 52.5876L24.3173 52.9535L24.4042 53.1399L24.5094 53.3314L24.5717 53.475L24.6398 53.5802L24.7267 53.698L24.789 53.7917L24.8508 53.8592L24.9131 53.9032L24.9811 53.9718L25.0498 54.0147L25.124 54.0582L25.1921 54.1073L25.2544 54.1325L25.3162 54.1577L25.4305 54.1823L25.5301 54.1891L25.6541 54.1754L25.7473 54.1697L25.8462 54.1325L25.9834 54.0891L26.0886 54.0319L26.1756 53.9707L26.2562 53.9078L26.3134 53.8506L26.3751 53.7637L26.4323 53.6465L26.4574 53.5465L26.4884 53.4412L26.5129 53.3115L26.5255 53.1937L26.5312 53.0376L26.5255 52.9078L26.5192 52.7522L26.5066 52.5727L26.4884 52.3737L26.4946 52.2062L26.4757 52.0638L26.4443 51.8031L26.4008 51.5115L26.3517 51.2256L26.3019 50.958L26.2584 50.6361L26.2013 50.2696L26.1642 50.0409L26.0835 49.6195L26.0521 49.4143L26.0023 49.1729L25.9714 48.974L25.9343 48.8025L25.8971 48.6406L25.8348 48.4977L25.6861 48.269L25.6055 48.1758L25.5186 48.0763L25.4317 47.9957L25.3385 47.9333L25.2453 47.8962L25.1395 47.8653L25.016 47.8401L24.8976 47.8281H24.8107L24.7176 47.835L24.5997 47.8527L24.5128 47.8773L24.4197 47.8899L24.3025 47.9025L24.1881 47.9156H24.0583L23.9714 47.9025L23.857 47.8842L23.7078 47.859L23.5591 47.8218L23.4167 47.7847L23.2921 47.7475L23.1498 47.7292L22.9822 47.6852L22.7535 47.6549L22.6049 47.6417L22.3762 47.636L22.2395 47.6417H21.9667L21.849 47.6549L21.7186 47.66L21.5819 47.6789L21.4396 47.6978L21.3155 47.7349L21.2011 47.7532L21.0582 47.791L20.8661 47.8722L20.6797 47.9333L20.4807 48.0202L20.252 48.1346L20.1531 48.1838L20.0038 48.2707L19.9169 48.345L19.818 48.4257L19.7248 48.512L19.607 48.6263L19.4892 48.7618L19.396 48.8556L19.2966 48.9917L19.2096 49.122L19.1164 49.2364L19.0301 49.3605L18.8934 49.528L18.8003 49.6772L18.7259 49.7916L18.6516 49.8974L18.571 50.0461L18.4904 50.1758L18.3663 50.4303L18.2914 50.623L18.217 50.8214L18.149 51.0083L18.0867 51.2062L18.0495 51.3926L17.9815 51.5784L17.9443 51.7957L17.9129 51.9569L17.8511 52.3726L17.814 52.615L17.7951 52.8437L17.7579 53.1725L17.7459 53.3589L17.7334 53.6065V53.8798L17.7516 54.1085L17.8014 54.4127L17.8757 54.7598L17.938 55.0393L18.006 55.3121L18.0929 55.6408L18.1925 55.8953L18.3039 56.156L18.4532 56.4287L18.6888 56.8261L18.8934 57.1172L19.0982 57.3962L19.3337 57.6569L19.5573 57.924L19.8238 58.2035L20.1903 58.5758L20.8043 59.1333L21.2692 59.5495L21.666 59.9086L21.8832 60.095L22.1377 60.3614L22.355 60.629L22.5723 60.9201L22.8009 61.2677L22.9685 61.6147L23.08 61.9058L23.1978 62.2037L23.2784 62.465L23.3527 62.812L23.3962 63.1843L23.4151 63.6417L23.4459 64.0139V64.4233L23.4522 64.7955L23.4459 65.2049L23.4024 65.7818L23.3527 66.2347L23.2721 66.5823L23.2104 66.8979L23.0737 67.1958L22.9685 67.4005L22.8261 67.5864L22.7512 67.6739L22.6334 67.7602L22.5345 67.8408L22.4293 67.8843L22.311 67.946L22.1994 67.9958L22.0851 68.0209L21.9296 68.014L21.7746 68.002L21.6077 67.9717L21.4893 67.9214L21.375 67.878L21.2606 67.7916L21.1371 67.7041L21.0227 67.5995L20.9175 67.4852L20.7934 67.3428L20.5647 67.0386L20.3103 66.6355L20.1062 66.1638L19.8203 65.5743L19.6488 65.1655L19.5744 64.9676L19.4813 64.7498L19.1834 63.9865L19.069 63.7195L18.9821 63.5651L18.8952 63.4221L18.7894 63.2975L18.6899 63.1986L18.5847 63.1242L18.4978 63.0871L18.3863 63.0379L18.2805 63.0064L18.1502 62.9996H18.0324L17.902 63.0122L17.7717 63.0379L17.6659 63.0682L17.5852 63.1122L17.4983 63.1551L17.4549 63.1917L17.3931 63.2489L17.3359 63.3106L17.2925 63.3615L17.2428 63.4598L17.1856 63.5897L17.1547 63.6651L17.1238 63.7761L17.0923 63.9001V64.0808L17.0861 64.2421L17.0741 64.7195L17.105 65.0357L17.1421 65.241L17.2416 65.9974L17.3096 66.357L17.3966 66.835L17.4646 67.2015L17.5332 67.5606L17.5578 67.803L17.615 68.125L17.683 68.5658L17.7264 68.8757L17.7699 69.1484L17.8134 69.3657L17.8751 69.5338L17.9374 69.6945L18.0118 69.9055L18.0987 70.061L18.1919 70.1977L18.3474 70.34L18.5087 70.4401L18.651 70.5264L18.8374 70.5882L19.0364 70.6133L19.2782 70.607L19.4458 70.5636L19.607 70.4956L19.8055 70.4384L19.9604 70.4069L20.1651 70.4012L20.3881 70.4132L20.5682 70.4624L20.8907 70.5619L21.3064 70.6859L21.5923 70.7603L21.9708 70.8226L22.2687 70.8655L22.3273 70.8692C22.4134 70.8747 22.5654 70.8844 22.5786 70.8844C22.592 70.8844 22.7257 70.8679 22.7962 70.8593L22.797 70.8592L22.8393 70.854L23.2612 70.8226L23.5963 70.7603L23.8942 70.6545L24.2041 70.5247C24.2052 70.5247 24.238 70.5082 24.283 70.4855L24.2835 70.4852C24.3766 70.4383 24.5214 70.3653 24.5472 70.3572C24.5855 70.3452 24.8611 70.1794 24.8639 70.1771L25.4031 69.7986L25.6141 69.6316L25.7387 69.507L25.8937 69.3457L26.2367 68.9483L26.398 68.7311L26.6027 68.3971L26.8011 68.0672L26.9623 67.7076L27.1487 67.3428L27.2848 66.9946L27.4095 66.5943L27.5209 66.2284C27.5209 66.2244 27.6199 65.8064 27.6325 65.771C27.6426 65.7424 27.692 65.4409 27.7115 65.3222L27.7194 65.2747L27.7874 64.8716L27.8245 64.3381L27.8555 63.8544L27.8743 63.397L27.8497 62.9001L27.7926 62.051ZM72.0518 69.2673L72.2319 69.4652L72.2296 69.4606L72.0515 69.2643L72.053 69.2656L72.2337 69.464L72.3143 69.6144L72.3577 69.8317L72.3326 70.0673L72.2463 70.2845L72.1216 70.4338L71.9667 70.5578L71.7305 70.6636L71.4698 70.7071L71.1158 70.7316L70.651 70.7379L70.0489 70.7254L69.4726 70.7505L68.2147 70.7442L67.4022 70.7134L67.2095 70.6699L67.0048 70.6201L66.8499 70.5521L66.7075 70.4584L66.6011 70.3594L66.5022 70.2605L66.5014 70.2591L66.4948 70.2525L66.4393 70.1536L66.4016 69.9986L66.4016 69.9981L66.4015 69.9968L66.3953 69.8837L66.4262 69.7413L66.4576 69.6236L66.5194 69.5092L66.5817 69.3914L66.656 69.3045L66.7366 69.2113L66.851 69.1004L66.9654 68.9826L67.0591 68.8642L67.1397 68.6721L67.196 68.4768L67.2266 68.2118L67.2455 67.6595V67.0637L67.2518 66.1712L67.2575 64.7938L67.2266 63.4787L67.2575 62.0515L67.2644 60.7679L67.2518 59.0555L67.2575 58.0137L67.2518 56.1028L67.2575 55.0919L67.2707 53.4229L67.2895 52.5115L67.2707 51.7545L67.2575 50.9854L67.2146 50.464L67.1775 50.265L67.1334 50.1289L67.0225 49.9362L66.8916 49.7813L66.7612 49.6635L66.6314 49.5085L66.5256 49.3719L66.4702 49.2667L66.4267 49.1054L66.4259 49.0968L66.4256 49.0957L66.4221 49.0595L66.4142 48.9819L66.4144 48.9804L66.4136 48.9716L66.4388 48.8224L66.4633 48.7046L66.5377 48.5863L66.612 48.4936L66.7109 48.4067L66.8104 48.3324L66.9654 48.2581L67.1397 48.2009L67.3444 48.1574L67.6303 48.1266L67.9031 48.1203H68.1197L68.6223 48.114L69.2987 48.1266H70.0615L70.8865 48.1329L71.5075 48.19L71.73 48.2524L71.9043 48.333L72.0759 48.4325L72.1902 48.5628L72.264 48.6926L72.3389 48.879L72.339 48.8805L72.2651 48.6972L72.1914 48.5668L72.077 48.4365L71.9055 48.337L71.7339 48.2564L71.5109 48.194L70.89 48.1369L70.065 48.1306H69.3022L68.6258 48.118L68.1232 48.1243H67.9065L67.6337 48.1306L67.3479 48.1614L67.1431 48.2049L66.9716 48.2621L66.8167 48.3364L66.7172 48.4108L66.6177 48.4982L66.6129 48.5042L66.7115 48.4176L66.811 48.3433L66.9659 48.2689L67.1397 48.2129L67.3444 48.1694L67.6297 48.1386L67.9025 48.1323H68.1198L68.6223 48.126L69.2982 48.1386H70.0609L70.886 48.1449L71.5069 48.2003L71.7294 48.2626L71.9032 48.3433L72.0764 48.4422L72.1885 48.5725L72.2623 48.7023L72.3372 48.8882L72.3434 49.0002L72.3372 49.1595L72.3389 49.1546L72.3452 48.9934L72.339 48.8805L72.34 48.883L72.3463 48.9974L72.34 49.1586L72.2828 49.3267L72.2022 49.4937L72.2005 49.496L72.0776 49.6738L72.0764 49.6755L71.9811 49.7767L71.9667 49.7921L71.9655 49.7933L71.7991 49.9471L71.7989 49.9474L71.71 50.0766L71.6495 50.165L71.5699 50.3874L71.5258 50.6475L71.5201 51.0318L71.5138 51.5904L71.5081 52.2605L71.483 53.0976L71.464 55.5854V57.67L71.4578 58.8136L71.4395 61.4312V65.9162L71.4206 67.0597L71.4458 68.2198L71.4767 68.4743L71.5573 68.7156L71.6625 68.902L71.8597 69.0929L71.8609 69.0941L71.8647 69.0975L71.8747 69.1066L72.0518 69.2673ZM72.0515 69.2643L71.9209 69.1476L72.0496 69.2622L72.0515 69.2643ZM72.3246 70.0598L72.3313 69.9969L72.3258 70.0598L72.2394 70.2771L72.1148 70.4258L71.9598 70.5498L71.7242 70.6556L71.4635 70.6991L71.1095 70.7237L70.6447 70.7299L70.0432 70.7174L70.6447 70.7294L71.1096 70.7231L71.4629 70.6985L71.7236 70.655L71.9592 70.5498L72.1142 70.4258L72.2382 70.2771L72.3246 70.0598ZM70.0432 70.7174L69.4663 70.7425L68.2084 70.7357L69.4657 70.7419L70.0426 70.7173L70.0432 70.7174ZM66.9977 70.6118L67.2015 70.6613L66.9985 70.6122L66.9977 70.6118ZM95.7776 48.6801L95.7096 48.5314L95.6095 48.4005L95.5049 48.2953L95.3676 48.221L95.2184 48.1586L95.0697 48.1215L94.5741 48.0723L93.5002 48.0346H92.204L91.6763 48.0408L91.1617 48.078L90.8758 48.09L90.5156 48.1832L90.3481 48.2404L90.224 48.3153L90.1371 48.3771L90.0445 48.4703L89.9758 48.5572L89.9072 48.6567L89.85 48.7744V48.8556L89.8443 49.0106L89.8632 49.1249L89.8998 49.2679L89.9747 49.4045L90.0616 49.5469L90.1548 49.6464L90.2411 49.7459L90.4584 50.0318L90.5573 50.2113L90.6007 50.3725L90.6259 50.5647L90.6442 50.8437V51.5756L90.6322 52.4567L90.6379 53.0856L90.6442 54.407L90.6322 55.3247L90.6442 56.088L90.6134 56.4968L90.5825 56.658L90.5144 56.7821L90.4458 56.8753L90.3532 56.9371L90.2543 56.9743L90.1491 57.0114L89.7769 57.0423L89.3612 57.024L89.0638 56.9868L88.9495 56.9188L88.8757 56.8445L88.8014 56.7575L88.7636 56.6335L88.7328 56.4619L88.7145 55.7547L88.7208 54.9233L88.7145 53.515L88.7208 52.2434L88.7076 51.4806L88.7208 50.9592L88.7453 50.4446L88.7763 50.2336L88.8569 50.0667L88.9375 49.93L89.0742 49.775L89.2165 49.6327L89.316 49.5143L89.4086 49.3902L89.4584 49.297L89.5155 49.1729L89.5281 49.0981V49.0054L89.4973 48.8248L89.4538 48.6887L89.3852 48.552L89.2857 48.4342L89.1679 48.3284L89.0319 48.2353L88.8763 48.1609L88.5595 48.1112L88.0015 48.0866L87.0581 48.0992L86.2764 48.0866L85.4085 48.0929L84.7796 48.1175L84.4364 48.1798L84.2129 48.237L83.971 48.3553L83.8407 48.4977L83.7349 48.6224L83.6777 48.7275L83.6205 48.8991L83.6022 49.1043L83.6325 49.309L83.6948 49.4806L83.7881 49.623L83.9121 49.7785L84.0362 49.9083L84.1849 50.0946L84.2718 50.2616L84.309 50.4978L84.3461 50.7705L84.365 51.217L84.3461 52.1319L84.365 54.8427L84.3587 56.4928V58.3974L84.365 59.892L84.3707 61.8275L84.3839 64.3153L84.4022 67.8031L84.365 68.324L84.3153 68.4955L84.2409 68.6933L84.166 68.818L84.0551 68.9415L83.9682 69.0227L83.875 69.1216L83.7881 69.1965L83.7012 69.3137L83.6325 69.4384L83.5834 69.6059L83.5771 69.786L83.6142 69.997L83.6766 70.1462L83.7761 70.3074L83.9178 70.4132L84.1048 70.5373L84.353 70.6179L84.5205 70.6751L84.899 70.718L86.58 70.7305L87.368 70.718L87.8579 70.7123H88.2582L88.5812 70.6997C88.6453 70.6741 88.7118 70.655 88.7797 70.6425C88.8483 70.6275 88.9148 70.6045 88.978 70.5739C89.0168 70.5384 89.0608 70.5091 89.1084 70.487C89.1415 70.4814 89.2306 70.3949 89.2527 70.3733L89.2576 70.3686L89.3509 70.232L89.4378 70.021L89.4629 69.7728L89.4315 69.6545L89.3812 69.5493L89.3194 69.4624L89.2508 69.388L89.1525 69.2948L89.0341 69.1645L88.9163 69.0158L88.8294 68.8671L88.7677 68.7557L88.7431 68.5841L88.7311 68.324L88.7179 67.8214V67.0781L88.7059 66.5326L88.7179 65.3667L88.6991 64.1632V61.9613L88.7242 61.0241L88.7488 60.4284L88.7619 60.2054L88.7917 60.0756L88.8603 60.0138L88.9592 59.9452L89.1639 59.8834L89.3875 59.8708L89.6979 59.8646L90.045 59.8583L90.2554 59.8646L90.3549 59.8897L90.4292 59.9263L90.5036 59.9886L90.5533 60.0624L90.6025 60.1991L90.6333 60.5278V61.4272L90.646 63.6234L90.6585 66.3153L90.646 68.1707L90.6271 68.4869L90.5968 68.6585L90.5282 68.7459L90.4784 68.8386L90.3915 68.9317L90.3052 69.037L90.1805 69.1427L90.0633 69.2605L89.9827 69.3475L89.9078 69.4652L89.8455 69.5767L89.7883 69.6951L89.7568 69.8191L89.7694 69.9621L89.8009 70.1176L89.8815 70.2354L90.0056 70.3778C90.0575 70.4095 90.1072 70.4449 90.1542 70.4836C90.2158 70.5259 90.2802 70.5641 90.3469 70.5979L90.583 70.6351L90.9113 70.6717L91.7363 70.7031L92.9645 70.7157L94.0383 70.6906L94.6901 70.6534L95.0332 70.6036L95.2505 70.5293L95.3934 70.4241L95.5426 70.2686L95.6415 70.1131L95.6987 69.9272V69.7597L95.6673 69.5922L95.6055 69.4555L95.5306 69.3377L95.4317 69.2073L95.3133 69.0707L95.1772 68.91L95.1092 68.7488L95.0406 68.5624L94.9789 68.364L94.9662 68.085L94.9789 67.0495L94.9977 65.715L94.9789 63.5319V60.6536L94.9852 58.1098L95.0097 55.3618L95.016 52.372L95.0349 50.5172L95.0966 50.1696L95.1652 50.0152L95.2704 49.8602L95.3877 49.7173L95.5369 49.5623L95.6175 49.4628L95.7239 49.3142L95.7667 49.1999L95.8045 49.0386L95.7976 48.827L95.7776 48.6801ZM108.684 69.6739L108.727 69.8169L108.747 70.0073L108.715 70.1565L108.647 70.3366L108.573 70.4607L108.429 70.5722L108.315 70.6659C108.257 70.6904 108.196 70.7095 108.135 70.7231C108.094 70.7316 108.053 70.7442 108.015 70.7609C107.97 70.7806 107.922 70.7952 107.874 70.8043C107.843 70.8043 107.518 70.8204 107.337 70.8294L107.336 70.8294L107.217 70.8352L106.342 70.8226H104.692L103.966 70.7854L103.569 70.7174L103.402 70.6362L103.247 70.5121L103.116 70.3509L103.048 70.2365L102.998 70.0873L102.967 69.9009L103.004 69.7025L103.066 69.547L103.165 69.3669L103.296 69.2119L103.376 69.1313L103.488 69.0015L103.55 68.8586L103.575 68.5613L103.513 68.1084L103.407 67.5938L103.321 67.2713L103.24 67.1478L103.159 67.0483L102.992 66.9368L102.719 66.8625L102.465 66.8436L101.993 66.8379L101.466 66.8562L100.976 66.8625C100.937 66.8666 100.898 66.8772 100.862 66.894L100.707 66.9746L100.596 67.0609L100.515 67.1976L100.44 67.5075L100.379 67.8545L100.341 68.165L100.298 68.5618L100.335 68.8408L100.465 69.0695L100.602 69.2491L100.757 69.4041L100.9 69.5842L101.014 69.7642L101.038 69.9815V70.1679L100.976 70.3395L100.902 70.4698C100.898 70.4744 100.802 70.5756 100.759 70.5756C100.716 70.5756 100.61 70.6682 100.61 70.6682L100.355 70.7305L99.9087 70.762L99.3695 70.7803L98.2465 70.774L97.4649 70.7369L97.024 70.6871L96.7828 70.6299L96.5649 70.5493L96.3974 70.4132L96.3099 70.3263L96.2293 70.1548L96.1984 69.9833L96.1927 69.8397L96.2173 69.6722L96.2922 69.5578L96.3539 69.4709L96.4345 69.384L96.5644 69.2474L96.6947 69.1416L96.8314 69.0244L96.9372 68.8751L97.024 68.7391L97.123 68.4663L97.1727 68.1867L97.2225 67.914L97.5655 65.9728L97.9378 63.7641L98.4032 61.0196L98.8995 58.1413L99.079 57.08L99.4015 55.3184L99.5942 54.1708L99.8109 52.7809L99.9481 51.9501L100.159 50.7962L100.301 50.0272L100.431 49.301L100.549 48.8173L100.623 48.6126L100.723 48.4262L100.822 48.3022L100.928 48.2152L101.052 48.1346L101.207 48.0849L101.537 48.0226L102.368 48.0106L103.261 48.0477L103.503 48.0786L103.64 48.1466L103.745 48.2152L103.82 48.2958L103.906 48.3702L103.981 48.4845L104.049 48.6023L104.106 48.7824L104.168 48.9871L104.434 50.2713L104.874 52.5853L105.296 54.9296L105.57 56.542L105.936 58.3911L106.295 60.3574L106.63 62.1808L107.022 64.1969L107.381 66.0266L107.685 67.5029L107.791 68.0552L107.871 68.4583L107.964 68.7122L108.088 68.9295L108.274 69.153L108.373 69.2394L108.509 69.3823L108.609 69.519L108.684 69.6739ZM102.703 63.9373L102.735 63.8132L102.737 63.6663L102.725 63.5485L102.558 62.3701L102.341 60.8314L102.036 59.095L102.012 58.9234L102.005 58.8422L101.956 58.7851L101.906 58.7662L101.813 58.8039L101.775 58.9343L101.731 59.1144L101.695 59.3065L101.571 59.9355L101.446 60.7171L101.341 61.3621L101.223 62.0442L101.093 62.9018L101.031 63.3175L100.994 63.7086L101.019 63.9133L101.068 64.0191L101.143 64.106L101.236 64.1632L101.35 64.2066L101.579 64.2312L102.41 64.2066L102.517 64.1563L102.609 64.0991L102.666 64.0242L102.703 63.9373ZM83.6417 63.4701L83.6234 63.9275L83.6045 64.4204L83.5674 64.9533L83.4994 65.357C83.4988 65.3615 83.4245 65.8184 83.4125 65.8532C83.4005 65.8881 83.3009 66.3067 83.3009 66.3107L83.1866 66.6766L83.0625 67.0734L82.9258 67.4211L82.74 67.787L82.5788 68.1466L82.3798 68.476L82.1751 68.8105L82.0139 69.0277L81.6708 69.4251L81.5159 69.5864L81.3912 69.7104L81.1802 69.8774L80.641 70.2565L80.6401 70.2571C80.622 70.2679 80.3615 70.4249 80.3243 70.4366C80.2986 70.4447 80.1539 70.5173 80.0609 70.5641C80.0155 70.5869 79.9823 70.6035 79.9812 70.6035L79.6713 70.7339L79.3734 70.8397L79.0389 70.9014L78.6164 70.9323C78.6141 70.9329 78.3751 70.9632 78.3563 70.9632C78.3374 70.9632 78.0457 70.9449 78.0457 70.9449L77.7478 70.9014L77.3693 70.8397L77.0834 70.7654L76.6678 70.6413L76.3453 70.5418L76.1658 70.492L75.9422 70.4795L75.7375 70.4858L75.5825 70.5166L75.3842 70.5738L75.2235 70.6424L75.0554 70.6859L74.8135 70.6916L74.6145 70.667L74.4282 70.6047L74.2858 70.5178L74.1245 70.4189L73.969 70.2765L73.8764 70.1393L73.7889 69.9843L73.7146 69.7733L73.6522 69.6121L73.5905 69.4446L73.5471 69.2273L73.5036 68.954L73.4607 68.6441L73.3921 68.2038L73.3349 67.8813L73.3103 67.6389L73.2417 67.2793L73.1743 66.9133L73.0867 66.4353L73.0187 66.0757L72.9198 65.3192L72.882 65.1145L72.8512 64.7978L72.8569 64.5496L72.8637 64.3209L72.87 64.1597V63.9796L72.9009 63.8555L72.9318 63.7411L72.9627 63.6662L73.0199 63.5359L73.0696 63.4369L73.1131 63.3872L73.1702 63.3254L73.2326 63.2683L73.276 63.2317L73.3635 63.1882L73.4435 63.1442L73.5494 63.1133L73.6797 63.0887L73.8101 63.0761H73.9279L74.0582 63.0824L74.164 63.1133L74.2755 63.163L74.3624 63.2002L74.4682 63.2745L74.5671 63.374L74.6729 63.4981L74.7598 63.641L74.8467 63.796L74.9611 64.0624L75.259 64.8258L75.3521 65.0431L75.4265 65.2414L75.598 65.6508L75.8839 66.2403L76.0886 66.7115L76.3424 67.1146L76.5711 67.4188L76.6952 67.5611L76.8004 67.6755L76.9119 67.7813L77.0366 67.8676L77.1475 67.9545L77.2653 67.998L77.3836 68.0477L77.5506 68.0786L77.7055 68.0912L77.8605 68.0975L77.9789 68.0723L78.0898 68.0226L78.2081 67.9608L78.3133 67.9179L78.4123 67.8373L78.53 67.7504L78.6049 67.6635L78.7473 67.4777L78.8525 67.2729L78.9892 66.9751L79.0509 66.6589L79.1316 66.3118L79.1813 65.8584L79.2247 65.2815L79.231 64.8721L79.2247 64.5004V64.0905L79.1939 63.7182L79.1756 63.2608L79.1316 62.8886L79.0578 62.5409L78.9772 62.2808L78.8588 61.9829L78.7445 61.6919L78.5775 61.3437L78.3488 60.9972L78.1315 60.705L77.9148 60.4385L77.6604 60.1721L77.4431 59.9857L77.0458 59.6261L76.5809 59.2104L75.9668 58.6523L75.6003 58.2801L75.3338 58.0005L75.1103 57.7341L74.8747 57.4733L74.67 57.1937L74.4653 56.9027L74.2292 56.5059L74.0799 56.2326L73.969 55.9719L73.8695 55.7174L73.7826 55.3892L73.7146 55.1159L73.6522 54.8369L73.5779 54.4892L73.5281 54.1851L73.5104 53.9564V53.683L73.5225 53.4349L73.5345 53.2491L73.5722 52.9203L73.5905 52.6916L73.6277 52.4497L73.69 52.034L73.7208 51.8728L73.758 51.6561L73.8267 51.4697L73.8632 51.2833L73.9256 51.0849L73.9936 50.8985L74.0679 50.7007L74.1428 50.508L74.2663 50.2535L74.3475 50.1232L74.4282 49.9745L74.5025 49.8693L74.5768 49.7549L74.67 49.6057L74.8061 49.4388L74.8936 49.3147L74.9862 49.2003L75.0731 49.0706L75.1726 48.9339L75.2658 48.8407L75.3835 48.7041L75.5008 48.5897L75.5945 48.5028L75.6935 48.4221L75.7804 48.3478L75.9296 48.2609L76.0291 48.2112L76.2578 48.0997L76.4562 48.0128L76.6426 47.9504L76.8348 47.8698L76.9771 47.8326L77.0886 47.8144L77.2133 47.7772L77.3562 47.7583L77.4923 47.7395L77.6226 47.7337L77.741 47.7212H78.0138L78.1498 47.7149L78.3785 47.7212L78.5272 47.7337L78.7559 47.7646L78.9234 47.8075L79.0664 47.8264L79.1899 47.8641L79.3328 47.9012L79.4815 47.9384L79.6301 47.963L79.7445 47.9819L79.8314 47.9939H79.9612L80.0727 47.9819L80.1905 47.9687L80.2837 47.9567L80.3706 47.9321L80.4884 47.9138L80.5816 47.907H80.669L80.7868 47.9196L80.9109 47.9447L81.0161 47.9756L81.1099 48.0128L81.2025 48.0751L81.2895 48.1551L81.3764 48.2552L81.457 48.3478L81.6062 48.5765L81.668 48.7195L81.7051 48.8807L81.7423 49.0522L81.7731 49.2512L81.8229 49.4931L81.8543 49.6978L81.9349 50.1197L81.9721 50.3485L82.0293 50.7144L82.0728 51.0369L82.1219 51.3039L82.1711 51.5898L82.2152 51.8814L82.2466 52.1421L82.2649 52.2845L82.2586 52.452L82.2769 52.6504L82.2894 52.83L82.2958 52.9855L82.3021 53.1159L82.2958 53.2708L82.2832 53.3891L82.2586 53.5189L82.2277 53.6247L82.2025 53.7242L82.1454 53.842L82.0836 53.9289L82.0264 53.9861L81.9458 54.0478L81.8589 54.1096L81.7531 54.1668L81.6171 54.2096L81.5181 54.2474L81.4244 54.2531L81.3003 54.2657L81.2008 54.2594L81.0864 54.2348L80.9624 54.1851L80.8938 54.1353L80.8195 54.0924L80.7514 54.0484L80.6828 53.9804L80.621 53.9369L80.5587 53.8689L80.4964 53.7757L80.4095 53.6579L80.3414 53.5521L80.2791 53.4092L80.1739 53.2171L80.087 53.0306L80.0121 52.8322L79.9503 52.6653L79.8697 52.46L79.808 52.2885L79.7211 52.0958L79.5907 51.8048L79.4415 51.4937L79.2619 51.1221L79.1133 50.8682L78.9458 50.6132L78.8279 50.4897L78.7285 50.3593L78.5426 50.229L78.3877 50.1609L78.183 50.1363L77.9846 50.1609L77.8422 50.2106C77.8049 50.2351 77.7653 50.2559 77.7238 50.2724C77.6767 50.307 77.6334 50.3465 77.5946 50.3902C77.5554 50.4331 77.5115 50.4715 77.4637 50.5046C77.4454 50.5046 77.3836 50.6281 77.3836 50.6281L77.3219 50.7521L77.2407 50.9008L77.1835 51.0872L77.1218 51.3039L77.084 51.5149L77.0411 51.695L77.0286 51.9054L77.0411 52.1598L77.0594 52.408L77.0657 52.5795L77.0777 52.7511L77.1218 52.9678L77.2933 53.3211L77.4357 53.5693L77.5843 53.8237L77.7084 54.0284L77.9194 54.2828L78.2671 54.5927L78.5266 54.7974L79.0916 55.2383L79.4821 55.5293L79.78 55.7649L80.1339 56.0382L80.4312 56.2989L80.6554 56.4973L81.294 57.1051L81.6165 57.471L81.8709 57.7935L82.1374 58.1537L82.274 58.371L82.4542 58.6495L82.6154 58.9725L82.7829 59.363L82.9384 59.7479L83.1803 60.3065L83.2855 60.5981L83.3598 60.896L83.4216 61.2304L83.4788 61.5781L83.5594 62.1298L83.6165 62.9738L83.6417 63.4701Z" fill="white"/>
</svg>
