<?xml version="1.0" encoding="UTF-8"?>
<svg id="_レイヤー_1" data-name="レイヤー_1" xmlns="http://www.w3.org/2000/svg" version="1.1" viewBox="0 0 510.2 255.1">
  <!-- Generator: Adobe Illustrator 29.8.2, SVG Export Plug-In . SVG Version: 2.1.1 Build 3)  -->
  <defs>
    <style>
      .st0 {
        fill: #fffffb;
      }
    </style>
  </defs>
  <g id="_レイヤー_2" data-name="レイヤー_2">
    <g id="_レイヤー_1-2" data-name="レイヤー_1-2">
      <path class="st0" d="M398.9,127.3c.8.8,2.2.9,3.1.2l5.5-3.9c.9-.6,1.2-1.8.8-2.7,0,0-.4-1.3-4.1-4-1.9-1.6-4.3-2.4-6.8-2.5-1,0-1,0-2.9.9-5.3,3.1-10.5,6.5-15.4,10.3-1,1-1.5,2.3-1.4,3.7.1,2.8,1.1,5.6,2.8,7.8,2.3,3.2,5.8,5.3,9.8,5.7,4.8.8,9.4,5.8,8.1,7.8s-5.2,1.5-7.3.7c-1.2-.5-2.3-1.1-3.3-1.8-.9-.9-2.4-.9-3.4,0l-5.2,3.7c-.9.6-1.8.8-1.5,1.9,1.1,1.9,2.7,3.5,4.5,4.6,1.7,1,3.6,1.8,5.6,2.2,1.2.1,2.5-.1,3.6-.7,2.1-1.2,13.4-8.9,14.9-10.2,1.1-.8,1.8-1.9,2-3.2.2-2.8-.7-5.6-2.5-7.8-2.2-2.9-5.3-5.1-8.8-6.1-6-1.2-9.9-7.8-7.8-9.7,2.1-1.2,4.8-1,6.7.5,1.1.8,2.1,1.7,3,2.6"/>
      <path class="st0" d="M370.8,100.2l-5.8-3.7c-1.1-.6-2.4-.6-3.4,0l-5.7,3.7c-.6.3-.9,1-.6,1.7.1.3.3.5.6.6l5.7,3.7c1.1.6,2.4.6,3.4,0l5.7-3.7c.6-.3.9-1.1.5-1.7-.1-.2-.3-.4-.5-.5"/>
      <path class="st0" d="M367.4,114.9h-8.4c-1.1,0-2.1.9-2.1,2.1v42.1c0,1.1.9,2,2.1,2h8.4c1.1,0,2.1-.9,2.1-2v-42.1c0-1.1-.9-2.1-2.1-2.1"/>
      <path class="st0" d="M194.3,94.3h-3.5c-1.3,0-2.4.8-3,1.9l-14.2,28.8-13.3-23.4h0l-1.8-3.1c-1.9-3.2-3.2-4.1-4.4-4.1h-7.7c-1.1,0-1.6.8-1,1.8l3,5.2h0l16.6,29.7v28c0,1.1.9,2.1,2.1,2.1h9c1.1,0,2.1-.9,2.1-2.1v-27.8l17.2-35.1c.4-.5.3-1.3-.3-1.7-.2-.2-.6-.2-.9-.2"/>
      <path class="st0" d="M498.8,114.9h-8.3c-1.1,0-2.1.9-2.1,2,0,0,0,0,0,0v35c0,1.9-5.8,1.2-8.1-1.3-1.7-1.9-2.7-4.4-2.7-7v-26.6c0-1.1-.9-2.1-2.1-2.1h-9.7c-1.1,0-2.1.9-2.1,2,0,0,0,0,0,0v25.2c0,3.9-.4,15.4,7.8,19,6.7,2.9,16.2-2.6,16.9-6.5v4.3c0,1.1.9,2.1,2.1,2.1,0,0,0,0,0,0h8.3c1.1,0,2.1-.9,2.1-2.1v-42.1c0-1.1-.9-2.1-2.1-2.1,0,0,0,0,0,0"/>
      <path class="st0" d="M334.3,131.8c-.2,0-11.9.1-11.9.1,0,0,2.2-8.3,5.6-8.6s6,5.6,6.2,6.4.3,1.9,0,2M345.1,119.3c-5-5.2-9.1-5.2-9.1-5.2-1,0-2,.2-3,.5-5.7,2.1-11.2,5-16.2,8.4-1.1.8-2.1,1.6-3.1,2.6,0,0-5.9,7.8-1.9,20.3,2.7,8.4,9.8,14.5,18.5,16,1,.1,2,0,2.9-.5,0,0,.2,0,.3,0l.6-.3c1.5-.9,8-5.7,8.9-6.5.3-.2.5-.4.6-.7,0-.4-.2-.6-1-.7,0,0-10.5-1.1-14.8-5.5-5.1-5.2-3.4-7.3-3.4-7.3,0,0,7.8-.1,10.5-.4,1,0,2.1-.4,3-.8,3.7-2.2,7.2-4.6,10.5-7.4h0l.5-.5c.7-.7,1.1-1.6,1.1-2.6,0,0,0-3.7-5-8.9"/>
      <path class="st0" d="M439.9,114.1l-1,.3h0c-3.3,1.6-6.3,3.6-9.2,5.9v-23.9c0-1.1-.9-2.1-2.1-2.1h-9.4c-1.1,0-2.1.9-2.1,2.1v62.6c0,1.1.9,2.1,2.1,2.1h9.4c1.1,0,2.1-.9,2.1-2.1v-33.4c0-.5.5-.9,1.1-1,4.1-1.2,8.4,1.1,9.9,5.1,0,.1,0,.3,0,.4,0,.2.1.4.2.6s0,.6.2.9v.5c0,.5,0,1,0,1.5v.9h0v24.5c0,1.1.9,2.1,2.1,2.1h9.2c1.1,0,2.1-.9,2.1-2.1v-31.7h0c0-11.7-9.4-14.7-14.9-13.1"/>
      <path class="st0" d="M303.7,157.4v-29.2c.4-3.9-.9-7.8-3.5-10.8-2.5-2.9-6.3-4.4-10.1-3.8-4.5,1.2-8.7,3.5-12.1,6.7-1.9-2.9-4.8-4.9-8.1-5.8-1.3-.3-2.6-.3-3.8-.2-6.3.8-10.5,6.4-12.8,7.1v-4.4c0-1.2-.9-2.1-2.1-2.1h-7.6c-1.1,0-2.1,1-2,2.1h0v42.2c0,1.1.9,2.1,2,2.1h7.6c1.1,0,2.1-.9,2.1-2.1v-28.8h0v-1.2c0-.2,0-.4,0-.6,0-1.2.3-2.3,1-3.2l.2-.2h.2c2.1-1,5.9,1.1,7.3,2.3h0c.3.2.6.5.8.7,1.7,1.8,2.7,4.2,2.6,6.6v24.4c0,1.1.9,2,2.1,2h8.7c1.1,0,2.1-.9,2.1-2.1v-33.2c0-.1,0-.2,0-.3.6-1.5,5.2-.6,7.2.7.7.4,1.3.9,1.9,1.4,1.7,1.8,2.7,4.2,2.6,6.7h0v24.6h0c0,1.1.9,2,2.1,2h9.5c1.1,0,2.1-.9,2.1-2h0v-1.6"/>
      <path class="st0" d="M218,154.3s-10.5-1.2-14.3-9.4c-5.2-11.1-.5-18.3-.5-18.3,6.1.4,11.4,4.1,13.8,9.7,2.9,5.6,3.3,12.1,1,18M231,128.2c-6.5-10.5-15-11.8-15-11.8h-1.8c-.3,0-.6.1-.8.2h0c-.4.1-.7.3-1.1.4h-.2c-6.9,3.6-13.5,7.5-19.9,11.8-1,.7-1.9,1.6-2.6,2.6-3.6,6.5-3.5,14.5.4,20.9,3.7,5.7,9.8,9.3,16.5,9.8,1.3,0,2.7-.4,3.9-1l17.9-10.1c1.1-.7,2.2-1.6,3-2.6,3.8-6.3,3.8-14.2-.2-20.4"/>
      <path d="M73.1,189.5c-34.1,0-61.7-27.7-61.7-61.8,0-34.1,27.7-61.7,61.8-61.7,34.1,0,61.7,27.7,61.7,61.8,0,34.1-27.7,61.8-61.8,61.8M73.1,63.8c-35.2,0-63.8,28.6-63.8,63.8s28.6,63.8,63.8,63.8,63.8-28.5,63.8-63.8c0-35.2-28.6-63.8-63.8-63.8"/>
      <path d="M59.3,159.4c-.8,0-1.4.6-1.4,1.4,0,0,0,0,0,.1,0,1.7,1.8,2.6,3.3,3l3.6.7c-.8-.9-3.3-.8-5.2-2.1s-.2-3.1-.2-3.1"/>
      <path d="M123.1,130.3c-4.3,6.6-10.3,11.8-17.4,15.2.6-1.3,1.1-2.6,1.5-3.9-1.4.8-2.9,1.4-4.4,1.8.7-1.4,1.3-2.8,1.6-4.3-1.3.9-2.8,1.6-4.3,2.1.5-1.1.6-2.2.4-3.3-1.2,1-2.6,1.9-4.1,2.4.2-1.1.2-2.1,0-3.2-1,.7-2,1.3-3.1,1.9.2-1.1.3-2.2.3-3.3-.8.7-1.8,1.3-2.9,1.6.2-1,.3-1.9.2-2.9-1,.7-2.9,1.5-2.9,1.5.1-1.1,0-2.3-.2-3.4-.8.7-1.7,1.3-2.6,1.8,0-1-.2-1.9-.5-2.8-.9.8-2.4,2-2.4,2,0-1.1-.4-2.1-.9-3-.6.9-1.2,1.8-2,2.6-.3-1.2-.8-2.3-1.5-3.2-.5.9-1.1,1.8-1.8,2.6-.5-1.1-1.1-2.1-1.8-3.1-.3,1-.8,2-1.3,2.9-.4-1-.9-2-1.6-2.9-.5.9-1.6,2.9-1.6,2.9l-1.5-2.2c-.8,1.8-1.3,2.8-1.3,2.8l-.8-.9c-.1-.2-.3-.3-.5-.4-.6-.1-1.3.2-1.6.7l-.9,1.2c0-.1,0-.3,0-.4,0-3.4,1.2-6.8,3.4-9.4.2,1.6.7,3.2,1.3,4.7,1-2.6,3.1-6.9,3.1-6.9,0,2.8.1,4.2.1,4.2,1.3-1.7,2.8-3.3,4.4-4.8-.5,1.6-.8,3.3-1,5,1.1-1.8,2.4-3.5,4.1-4.8-.5,1.6-.8,3.3-.9,5,1.9-2.1,4-3.8,6.5-5.2-1,1.8-1.9,3.8-2.6,5.7,1.8-1.6,3.9-2.9,6-3.9-.8,1.7-1.5,3.5-2,5.4,1.6-1.2,3.4-2.2,5.2-3-.6,1.6-1.2,3.3-1.5,5l4.4-2.4-.9,3.3c.9-.4,4.4-2.6,4.4-2.6-.4,1.6-1.5,4.5-1.5,4.5,3.4-2.1,6.3-5,8.4-8.4-1.2,3.2-2.8,6.2-4.7,8.9,8-4,13.3-13.6,13.3-13.6-1.4,3.8-3,7.4-4.8,11,3.8-2.6,7.1-5.7,9.8-9.4-1.8,3.7-3.9,7.2-6.3,10.5,3.6-2.9,6.9-6,10-9.5-2.1,4.1-4.7,7.9-7.6,11.5,2.5-1.2,4.8-2.8,6.8-4.7-1.1,2.3-2.5,4.4-4,6.4,2.5-1.2,4.6-2.9,6.4-4.9M102.9,146.5c-1.1-1-2.7-1.4-4.1-.9-.3-.4-.7-.7-1.1-.9-.5-.2-1-.3-1.5-.2-.3-1.2-1.2-2.1-2.2-2.6-.9-.2-1.8-.2-2.6.2-.2-1-.8-1.8-1.6-2.4-1-.6-2.2-.7-3.4-.5-.4-1-1.3-1.9-2.3-2.3-1.1-.3-2.2-.2-3.2.3-.5-.9-1.3-1.6-2.2-1.9-1.3-.3-2.7-.1-3.8.5-1-1-2.4-1.5-3.8-1.3-.9.2-1.8.7-2.5,1.3-.9,0-1.7.3-2.5.7.2-1.1.5-2.2.6-3l.9.6.9-2.6,1.6,2c.3-.7,1.5-2.9,1.5-2.9.6.9,1.2,1.9,1.7,2.9.6-.8,1.1-1.7,1.3-2.6.6.9,1.1,1.8,1.5,2.8.7-.8,1.3-1.7,1.9-2.6.4,1.1.8,2.2,1,3.3.9-.7,1.6-1.6,2.2-2.6.3,1,.4,2,.4,3,.8-.5,2.6-2.3,2.6-2.3.2,1,.2,2.1,0,3.1,1.1-.6,2.1-1.3,3.1-2,0,1.1,0,2.3-.1,3.4,1-.5,2-1.1,3-1.7,0,.5-.4,2.9-.4,2.9,1-.3,2-.7,2.9-1.2,0,.7-.4,3.2-.4,3.2,1.3-.6,2.5-1.3,3.6-2.1-.1,1-.4,2-.7,3,1.6-.5,3.1-1.2,4.5-2.2-.2,1.2-.5,2.3-1.1,3.3,1.5-.3,3-.9,4.4-1.6-.4,1.2-.9,2.4-1.5,3.5,1.5-.1,2.9-.5,4.2-1.1-.5,1.4-1.4,2.5-2.6,3.4M102,147.2c-.5.2-.9.4-1.4.6-.3-.4-.6-.6-1.1-.8,0-.4-.2-.8-.4-1.2,1.2-.4,2.6,0,3.6.8l-.7.5M97.5,149.1c-.3-.4-.6-.8-1-1,.8-.4,2.6-1.2,3.7,0l-2.6,1.1M96.8,149.4c-.6.2-1.3.4-2,.5-.2-.7-.7-1.2-1.3-1.6,1.3-.7,2.8-.3,3.6.9l-.4.2M91.9,150.2c-.2-.7-.6-1.3-1.2-1.8.7-.3,1.5-.3,2.2,0,.7.3,1.2.9,1.5,1.6-.9.2-1.7.2-2.6.2M79.6,145c-2.6-1.7-5.8-1.7-8.4-.2h0l-1.5-1.5c.7-.8,1.6-1.3,2.6-1.4.8,0,1.6.3,2.1.9l.2.2.2-.2c.5-.4,1.2-.7,1.9-.8h.3c.9.2,1.6.8,2,1.6v.2c.1,0,.4-.1.4-.1.8-.4,1.7-.5,2.6-.2.8.5,1.3,1.3,1.5,2.2v.3h.3c.8-.5,1.8-.5,2.6-.1.7.6,1.2,1.4,1.2,2.4v.3h.3c1.3-.2,2.6.6,2.9,1.9-4.3-.7-8.3-2.5-11.6-5.2M72.1,150.4c.2.3,0,1.2,0,1.2h-.6c-.1.6-.2,1.1-.2,1.7l-.6.5c.4,2,1.3,2.4,1.3,2.4h0c.1.4.4.7.7,1,.2.9.7,1.7,1.5,2.3-.5.2-1.1.3-1.7.3,0,0,.5.5,2.6.3s2.4-.6,3.8.2,1.3,3.4-.4,3-2.2,0-2.3.6-.6.8-1.4.5-1.4-1-.3-2c-.9-.2-1.8,0-2.5.6l.2-.9s-1.2,0-1.6,1.7c-.3,1.9-.9,3.7-1.8,5.4.3-1.2.6-2.5.8-3.7.3-2.3.5-3.6,2.2-4.4,0,0,.2-.4-.4-.6s-.9-.3-1-1l-.3-1c0-.1.1-.2.2-.4l1.2-.3-.7-.9-.3-.2c.3-.9.3-1.9,0-2.9h-.5s-.3-1.3-.5-2.2c-.4.2-.8.5-1.2.7,0,0-.3-1-.6-1.6l-1.3,1.5s-.5-.8-.7-1.3c0,0-.5.6-1.1,1.6-.5-.4-1-.9-1.5-1.4-.3.8-.5,1.7-.5,2.6-.6-.2-1.2-.5-1.7-.8,0,1.2,0,2.3.4,3.5l-.6.4c-.8-1.1-1.4-2.4-1.7-3.7,0,0-.4.2-1.1,2.6-.6-1-1.1-2-1.4-3.1-.2-1.3-.9-2.4-1.9-3.3-.7-.5-.9-2.3-.9-2.3,2.1.7,4.1,1.6,6,2.6,0,0,0-.7-.1-1,.9-.6,1.8-1.1,2.9-1.4,1.2-.2,2.4.2,3.3,1.1.6.3,1.2.4,1.9.4-.2-.3-.5-.6-.8-.8-.6-.3-.9-.6-.3-.9,1.2-.3,2.5-.3,3.8,0,1,.2,1.3.9,1.6,1.5.2.6.6,1.2.9,1.7M73.6,152.7l.2-1.1c.3.3,1.3,1.1,1.3,1.1l.5-.9c.2.6.2,1.2,0,1.8-.9.1-1.9.5-2.6,1.1-.2.2-.4.4-.5.6,0,0,0,.1,0,.2-.3-.3-.5-.7-.5-1.1.3,0,.6-.2.9-.3v-1.4c.1,0,.8.1.8.1ZM75.6,159l-1-.7c-.3-.1-.6-.5-.5-.9h.3c.4.2.8.2,1.2.1.2.5.2,1,0,1.4M76.4,155.6c0,.9-1.7,2-2.6,1-.3-.3-.3-.8,0-1.1l.7.2c.3,0,.4-.2.5-.5s.5-.5.5-.5c.5,0,.8.4.8.9M84.8,160.6c-1.3-1-2.9-1.4-4.5-1.3-1.3.3-1.4-.3-1.4-.3,2.1-1,4.6-.3,5.9,1.6M81.1,161s.9.2,1.2.8c.2.3.2.7,0,1,0,0-.3.3-.8-.2-.3-.5-.5-1.1-.4-1.6M85.1,163.4c-.3,0-.7,0-1,0,0,.5,0,1.1,0,1.6-.4,0-.9-.2-1.3-.3l-.5,1.5-1.6-.7s-.4,1-.6,1.4c-.5-.1-1-.3-1.5-.4-.3.3-.6.7-.9,1l-1.4-.4c-.4.6-.9,1-1.5,1.3l-.5-1c-.7.2-1.5.3-2.2.4,0-.6-.1-1.2,0-1.8-.4-.3-.9-.3-1.3,0,0-.9.3-1.7.9-2.4,0,.4.2.8.4,1.2.4-.5.9-.9,1.5-1.3,0,.7.1,1.5.4,2.2l.8-.7c1.2.2,2.4,0,3.4-.7.9.4,2,0,2.6-.7,0,0,1.6.4,2.2-.7s-.8-2.2-1.9-2.6-.6-.8.2-.8c1.2,0,2.4.7,3.2,1.6-.3,0-.6,0-.9.2,0,0,2,.9,1.7,2M83.7,167.7v.3c.4.6.7,1.4.8,2.1-.6-.2-1.2-.3-1.9-.4-.3.5-.5,1-.8,1.6-.5-.2-1-.4-1.5-.6-.3.4-.6.8-.9,1.2-.3-.3-.7-.5-1.1-.8-.3.4-.6.8-.8,1.3-.3-.3-.6-.6-1-.8-.5.5-.9,1-1.3,1.6-.3-.5-.7-1-1.2-1.3-.4.4-.7.8-1,1.2-.2-.5-.4-1-.7-1.4-.3,0-.7,0-1,0-.1-.4-.2-.9-.3-1.3h-1.2c-.1-.3-.5-1.1-.5-1.1.1-.5.3-1,.6-1.5.8.9,1.6,1.7,2.6,2.4,1.5,1,3.1-.3,4.8-1.1,1.4-.6,2.9-.9,4.4-.9.6,0,1.3-.2,1.7-.7M65.3,156.2c.6-.2,1.1-.1,1.6.2,0,0,.3.9.4,1.3s.5.2.7-.2c0-.2.2-.4.3-.5.5,0,.9.4,1,.9-.3.6-.8.9-1.4.9-1.1,0-3.1-1.3-2.6-2.6M63.4,162.6c-.4,0-.8-.3-1-.7,0-.4.3-.8.6-1,.3.5.4,1.1.4,1.7M62.8,159.3s.2-.8,1.7,0c.8.6,1.9.5,2.6-.2h.4c.6,0,1.2,0,1.7-.3h0l.2,1.7.9.6c-.8.7-1.3,1.6-1.6,2.6-.4-.4-.8-.8-1.3-1-.7-.3-1.4.2-2.5-.7s-1.7-2.4-2.4-2.6M63.3,153.2c.4.4.7.8,1.2,1.2.2-.2.8-1.4.8-1.4l.5,1.3,1.2-1.5.4,1.7c.5-.4.9-.7,1.3-1.2.1.6.4,2.1.4,2.1l.7-.2c0,.4-.1.8-.3,1.2-3.8-1.9-5.8-.7-5.8-.7l.2.7c-.3.5-.8.8-1.4.7l-.7-2.1c.5.2,1.1.3,1.6.4,0-.7,0-1.5,0-2.2M68.2,167.6h-1c0-.3-.2-.7-.4-1-.4,0-.8,0-1.1,0,0-.2-.2-.4-.3-.5h-1.3l-.4-.6c-.4.1-.7.2-1.1.2v-.5c-.8,0-1.4,0-2,0v-.7c-.8,0-1.5,0-2.3,0l.4-.5c-1.8-.6-3.7-1.4-3.7-1.4.4,0,1.6-.4,1.6-.4-1.4-.7-2.8-1.5-4-2.6.9.3,1.8.4,2.7.4-1.1-1-2-2.3-2.6-3.6.9.4,1.9.6,3,.7,0-.9.3-1.8.5-2.6.5,1.1,1.2,2.1,2,2.9l.7-2c.4.8.9,1.6,1.4,2.3l1.1-.7c.4.2.9.4,1.3.5.5-.2,1-.4,1.3-.8.4.9,1.1,1.7,2,2.2-.7.7-1.8-.2-2.9-.4-.5-.2-1,0-1.1.6,0,0,0,.2,0,.3-3.1,1.6-.6,3.2.5,3.8s2.4.4,3.8,1c.8.3,1.5.9,2.1,1.6,0,.6,0,1.1-.3,1.6M54,149.7s1.2.5,1.5,2.6l-.8,2-.6-1.6.3-1-.5-2ZM52.5,146.3l.8,1.4c-.2,1.2,0,2.5.4,3.7l-.2,1.4c.4,1.2.8,2.4,1.4,3.5,0,0-2.8.2-2.6-5-.6-1.6-.6-3.3,0-4.9M49.4,132c-.2-1.5-.4-3.1-.4-4.6,0-1.4.1-2.7.5-4,0-.1.1-.2.2-.2s.5.3.8,2.5v.5c.4,3.6,1.1,7.1,2.2,10.5l.4,1,.6-.9c.4-.6.8-1.1,1.3-1.5.1,0,.3,0,.4,0,.2,0,.3.4.2,1v.5c-.3,1.6-.3,3.3,0,4.9.3,1.3.9,3.8,1.3,5.2-1.5-.5-2.9-1.2-4.1-2.1-1.4-4.1-2.5-8.4-3.4-12.7M51.7,123.3c.4.2.7.5.9.8-.4,0-.7.2-1,.4-.1-.4-.2-.9-.4-1.3h.4M53.2,124.5c.7.2,1.2.6,1.5,1.3-.8.2-1.5.8-1.9,1.6-.3-.2-.5-.4-.8-.5l-.2-.9v-.6c0-.1,0-.2,0-.4.4-.3,1-.5,1.5-.4M55.6,122.6c.8.1,1.6.6,2,1.3-1,0-1.9.6-2.4,1.4-.3-.7-.9-1.2-1.6-1.4.5-.7,1.2-1.2,2.1-1.4M59.4,122.2v.2c-.2.5-.3,1.1-.3,1.7l-.9-.2h0c-.3-.5-.7-.9-1.1-1.3.5-.7,1.5-.9,2.2-.5M57,127.2c-.7.1-1.3.5-1.8.9-.6-.4-1.3-.5-2-.4.3-.8.9-1.3,1.7-1.5.8,0,1.6.3,2.1.9M58.7,127.6c-.2-.1-.3-.2-.5-.3l.5-.2v.5M57.6,127.1c-.6-.7-1.3-1.1-2.2-1.3.7-1.1,2.1-1.6,3.4-1.1v1.9c-.4.1-.8.3-1.1.5M52.2,128.3v-.8l.7.5h0c-.2,0-.4.2-.5.3M62.3,145.8c-1.1.4-3,.9-3.8,1.2-.3-1.2-1.2-4.4-1.5-5.8-.2-1.5-.2-3,0-4.5v-.6c.2-.8-.1-1.6-.8-2.1-.5-.3-1.2-.2-1.6.2-.3.3-.6.6-.9.9-.7-2-1.1-4.1-1.4-6.3.8-.7,2-.7,2.9,0h.2c0,.1.2,0,.2,0,.5-.5,1.2-.9,2-1,.5,0,.9.2,1.3.5,0,2.2.3,4.4.7,6.5.6,3.7,1.5,7.4,2.6,11M70.5,137.7c-1.1.5-2,1.3-2.5,2.4-.5.2-1,.6-1.3,1-.4-1-.7-1.9-.9-2.9,0,0,.3,2.6.3,3.1s0,.5,0,.5h-.2c-.2-.7-.4-1.4-.6-2.1s.3-1.3.5-2.5c.9-.6,2-.9,3.1-.8.7.2,1.3.6,1.7,1.2M71.1,137.4c-.5-.7-1.2-1.2-2-1.5.5-.5,1.2-.8,1.9-.9,1-.1,2,.2,2.8.8-1,.3-1.9.8-2.6,1.5M76.8,138c-1,.1-1.9.6-2.6,1.3-.5-.8-1.4-1.4-2.3-1.7.8-.7,1.8-1.1,2.9-1.1.9.2,1.7.8,2.1,1.6M77.4,138.1c-.4-.8-1-1.4-1.8-1.8.9-.4,1.9-.5,2.9-.2.7.2,1.3.7,1.7,1.3-1,0-2,.2-2.9.7M82.5,139.6c-.9,0-1.7.3-2.5.7-.4-.8-1.1-1.5-2-1.9.8-.4,1.6-.6,2.5-.4.9.2,1.6.8,2,1.6M83.1,139.6c-.4-.7-.9-1.4-1.6-1.8.8-.3,1.8-.3,2.6,0,.8.3,1.4.8,1.8,1.5-.9-.1-1.8,0-2.6.4M87.8,142.3c-.8-.4-1.8-.4-2.7,0-.2-1-.7-1.9-1.5-2.5.8-.3,1.7-.3,2.5,0,.8.5,1.4,1.3,1.5,2.3M88.2,142.1c-.1-1-.6-1.9-1.3-2.6.9-.1,1.8,0,2.6.5.6.4,1.1,1.1,1.3,1.8-.9-.2-1.8-.1-2.6.2M92.1,144.8c-.8-.3-1.8-.4-2.6-.2-.2-.8-.5-1.6-1-2.2.8-.4,1.8-.4,2.6,0h0c.7.6,1,1.4.9,2.3M94.5,144.8c-.6,0-1.3,0-1.9.2,0-1-.2-1.9-.9-2.6.7-.3,1.4-.3,2.1,0,.9.4,1.6,1.1,1.9,2-.4,0-.8.2-1.2.4M95.3,145.2h0c.7-.3,1.5-.3,2.2,0,.7.4,1.2,1,1.4,1.8-.9,0-1.8.2-2.6.7,0-.9-.3-1.8-1-2.4M92.7,145.7c.7-.3,1.5-.3,2.2,0,.6.5.8,1.2.8,2-.8-.2-1.6-.1-2.4.2,0-.8-.1-1.6-.6-2.2M89.5,145.7c.5.6.7,1.5.4,2.3-.5-.2-1-.3-1.5-.2,0-.9-.5-1.7-1.2-2.3.7-.2,1.5-.2,2.2.2M85.5,142.6c.6-.3,1.3-.3,2,0,.8.5,1.3,1.3,1.4,2.1-.7-.1-1.4,0-2.1.2-.1-.9-.6-1.8-1.3-2.4M84.9,142.9c.7.4,1.2,1.2,1.3,2-.7-.1-1.4,0-2.1.2-.2-.8-.8-1.6-1.5-2,.7-.3,1.6-.3,2.3,0M80.4,140.6c.7-.4,1.5-.6,2.3-.5h.3c.8.4,1.3,1.2,1.4,2.1-.8-.1-1.7,0-2.5.4-.3-.9-.8-1.6-1.6-2.1M79.6,140.8c.8.3,1.5.9,1.7,1.8-.7,0-1.4,0-2,.4-.4-.8-1.2-1.3-2-1.5.6-.5,1.5-.7,2.3-.6M74.7,139.6c.7-.6,1.7-1,2.6-.9.9.2,1.7.8,2.2,1.6-1,0-1.9.4-2.6,1-.5-.8-1.3-1.4-2.2-1.7M74.1,140.1c.8,0,1.5.4,2.2,1.4-.6.1-1.1.4-1.6.7-.6-.6-1.4-1-2.3-.9h-.3c.4-.7,1.1-1.1,1.8-1.3M68.9,139.8h0c.4-.9,1.2-1.5,2.2-1.7,1,0,1.9.6,2.4,1.5-.8.3-1.5.9-2,1.6-.6-.9-1.6-1.4-2.6-1.4M69.7,144.5c.2.7-.2,1-.3,1h-.1c-.8.1-1.6,0-2.4-.2-.2-.5-.4-1.5-.8-2.6.2-.5.7-.7,1.2-.5,0,0,0,0,0,0,.9.6,1.7,1.4,2.4,2.3M69.3,142.8l-1.1-1c-.3-.3-.6-.4-1-.5.4-.5,1.1-.8,1.7-.9.9,0,1.7.5,2.1,1.2-.7.3-1.3.7-1.8,1.3M89.9,145.3c.7-.2,1.5,0,2.1.4.6.6.8,1.4.7,2.2-.7-.2-1.5-.2-2.3,0,.3-.9,0-1.9-.5-2.6M60.2,122.9c.2-.7.4-1,.5-1s.2.4.2.8c.1,3.9.7,7.9,1.6,11.7l.3.8.6-.6c.6-.7,1.1-1.4,1.6-2.2,0,0,.2,0,.3,0v.5c0,.1,0,.2,0,.3-.1,1.5-1.2,6.4-1.2,6.4v.3c.1.5,1,4,1.6,5.5l-1.3.6-1.3-.4c-1.1-3.6-2-7.3-2.6-11-.4-2.5-.6-5-.7-7.5,0-1.5.1-3,.4-4.4M63.7,125.4c-.5,1-.8,2-1.1,3.1-.2-1.3-.3-2.5-.3-3.6.5,0,1,.2,1.4.5M65.1,123c-.4.7-.8,1.3-1.2,2-.4-.4-1-.6-1.6-.5v-1.8c0-.4,0-.2,0-.2,1-.5,2.2-.2,2.9.5M47.2,131.8c-.2-1.4.7-1.8.9-1.8,0,.4,0,.9.2,1.4l-1.1.4ZM47.1,129.8c0-1.4.7-1.8.9-1.8,0,.5,0,1,0,1.5l-.9.4ZM46.3,132.7c-.3.8-.4,1.6-.3,2.4-1,1-1.3,2.6-.6,3.9-.9,1.6-.9,3.6,0,5.2-.1.3-.2.6-.2.9-1.3-.2-2.6.3-3.5,1.1-.8.7-1.3,1.8-1.3,2.9,0,.1,0,.3,0,.4-1.1.1-2.2.7-2.9,1.6-.5.7-.7,1.5-.7,2.3,0,.4,0,.8.2,1.2-.9.3-1.7.9-2.2,1.7-.2.4-.3.9-.3,1.4,0,.6.1,1.1.3,1.6-.5.2-1,.5-1.4.9-.7,0-1.4.2-2,.5-.5,0-.9,0-1.3.2-.7-.3-1.4-.4-2.2-.2-.5.2-.9.4-1.2.8-.8-1.3-1.6-2.7-2.2-4.1l2.4,1.5.3-1.7c1,.7,2.8,2.2,2.8,2.2v-2.8c.8.6,1.6,1.2,2.3,1.9,0-.9-.2-3.5-.2-3.5.9.5,1.7,1,2.4,1.6,0-1.2-.2-2.3-.4-3.5.7.3,1.4.5,2,.9,0-1.2-.1-2.4-.3-3.6.5.1,1,.4,1.5.7-.2-1-.4-3.3-.4-3.3.5.4,1,.7,1.5.9,0-1.3,0-2.5,0-3.8.5.6,1.1,1.2,1.8,1.6-.2-1.4,0-4,0-4,.5.5,1.1,1,1.7,1.5,0-1.2,0-2.3.2-3.5.5.5,1,.9,1.6,1.3,0-.9,0-1.7,0-2.6.4,0,.7.2,1,.4-.4-.6-1-1.2-1.6-1.6-.1.8-.2,1.5-.2,2.3-.5-.5-.9-.9-1.4-1.4-.3,1.2-.5,2.4-.5,3.7-.5-.5-1.7-1.7-1.7-1.7-.1,1.3-.1,2.7,0,4.1-.4-.5-1.5-1.8-1.5-1.8-.2,1.5-.2,3,0,4.4-.6-.4-1.1-.9-1.6-1.3,0,1.3.2,2.6.4,3.9-.5-.3-1.1-.5-1.6-.7.3,2,.6,3.6.6,3.6-.7-.3-1.5-.5-2.3-.6.3.9.4,1.7.5,2.6-.7-.5-1.5-.8-2.4-.9.2.9.3,1.7.3,2.6-.8-.6-1.7-1.2-2.6-1.6l.3,2.6c-.9-.7-1.8-1.3-2.8-1.9,0,.6,0,1.2,0,1.7l-2.6-1.8c0,0,0-.2,0-.2-3.4-9-4.6-18.7-3.3-28.2.2,1.8,1.6,7,1.6,7,.5-5.5,1.4-10.9,2.6-16.2,0,3.1.4,7.3.4,7.3.9-4.8,2.3-9.5,4-14-.5,3.2-.7,6.4-.8,9.6.8-2.7,1.7-5.4,2.8-8-.8,3.6-1.2,7.2-1.1,10.9.9-2.6,1.9-5.2,1.9-5.2-1.4,7-1.7,14.3-.8,21.4.4-3.7,1.5-7.2,3.3-10.5-.1,2,.1,4.1.8,6,.6-3,1.8-5.9,3.5-8.5,0,2.1.2,4.1.7,6.2.9-2.5,2-4.9,3.2-7.2,0,1.6.4,3.2.8,4.8.7-1.8,1.5-3.6,2.6-5.2-.2,1.7-.2,3.5,0,5.2-.1.7-.2,1.4-.2,2.1M45.5,145.8c0,.5,0,1,.2,1.4-.6.1-1.1.3-1.6.7.2-.9.7-1.6,1.5-2.1M45.8,147.9c-.3.5-.5,1-.5,1.6v.3c-1,0-1.9.4-2.6,1,.1-.8.4-1.5,1-2h0c.5-.5,1.2-.8,2-1,0,0,0,.1,0,.2M44.3,152.7c0,.2,0,.4,0,.7-.8.1-1.6.5-2.2,1-.2-1,0-2,.6-2.8.5-.7,1.3-1.1,2.2-1.2-.4.7-.6,1.5-.6,2.3M40.6,149.3c0-1,.3-1.9,1-2.6.7-.7,1.6-1,2.6-1-.7.7-1.2,1.6-1.3,2.6-1,0-1.9.3-2.6.9M39.4,152.3c0-.8.4-1.6.9-2.2h0c.6-.6,1.3-1,2.1-1.1-.5.8-.8,1.7-.8,2.6-.8,0-1.6.4-2.3.9M41.2,153.7c0,.3,0,.7,0,1-.9.2-1.7.7-2.3,1.4-.3-1-.1-2,.4-2.9.5-.6,1.3-1,2.1-1.1-.2.5-.3,1.1-.3,1.6M38.9,159.6c-.3-.9-.2-1.9.3-2.8.4-.7,1-1.1,1.8-1.3-.2.4-.3.9-.3,1.4,0,.6.1,1.2.3,1.8-.8.1-1.5.5-2.1,1M37,164.1c-.4-.7-.5-1.6-.2-2.4.3-.6.9-1,1.6-1.2,0,.2,0,.4,0,.6,0,.7.2,1.3.5,1.9-.7.2-1.3.5-1.8,1M35.9,157.1c0,.4,0,.7.2,1.1-.6.2-1.1.5-1.5,1-.3-.7-.3-1.6,0-2.3.3-.6.8-1.1,1.5-1.3-.2.5-.3,1-.3,1.6M36.1,161.5c-.5.2-.9.5-1.3.8-.4-.7-.4-1.5-.2-2.3.3-.5.7-1,1.2-1.2,0,.3,0,.6,0,.8,0,.6.1,1.3.3,1.9M36.6,164.3c-.7,0-1.3.3-1.8.7-.2-.7,0-1.4.3-2h0c.3-.4.6-.7,1.1-.8,0,.1,0,.3,0,.4,0,.6.2,1.2.5,1.8M36.7,158.4c.4-.6,1-1,1.7-1.1-.1.4-.2.7-.2,1.1,0,.5.1,1.1.3,1.6-.7.1-1.4.5-1.9,1.1-.3-.8-.3-1.8,0-2.6M38.1,151.5c.5-.7,1.3-1.2,2.1-1.3-.5.8-.7,1.7-.7,2.6-.7.2-1.4.7-1.9,1.3-.1-.9,0-1.8.5-2.6M37.7,154.8c.3-.6.9-1.1,1.5-1.4-.1.4-.2.9-.2,1.3,0,.6,0,1.1.2,1.7-.7.1-1.4.5-1.9,1-.1-.9,0-1.8.4-2.6M37.7,167.4c-.8-.1-1.7,0-2.4.4-.3-.7-.2-1.4.2-2.1.4-.6,1.1-1,1.8-1.1,0,.3-.1.5-.1.8,0,.7.2,1.4.6,2.1M35.2,162.3c-.6,0-1.1.3-1.5.6-.2-.6-.2-1.3,0-1.9.3-.5.7-.9,1.2-1.1,0,.2,0,.5,0,.7,0,.6.2,1.2.4,1.7M35.1,164.9c-.7,0-1.3.1-1.9.4,0-.6,0-1.2.4-1.7.4-.5.9-.9,1.6-1-.1.4-.2.8-.2,1.2,0,.3,0,.7,0,1M34.5,166.7c0,.3,0,.6.2.9-.7-.3-1.4-.3-2.1,0h0c.1-1.1,1.1-1.9,2.2-1.8-.2.4-.3.8-.3,1.2M34.4,168.7c0,0-.1.2-.2.3-.5-.2-.9-.4-1.3-.6.5-.2,1.1,0,1.6.2h0M31.9,167.6c-.3-.2-.6-.5-.9-.7.4-.3.8-.4,1.3-.4-.2.3-.4.7-.4,1.2M31.6,164.7c.3-.4.7-.7,1.3-.8-.2.4-.4.9-.4,1.4,0,.2,0,.3,0,.5-.5,0-1,.1-1.5.3,0-.5.2-1,.5-1.5M33,163.3c-.4,0-.9.2-1.2.4-.4-.6-.5-1.3-.3-2,.2-.4.7-.7,1.6-.8-.2.4-.3.8-.3,1.2,0,.4.1.8.2,1.3M30.1,165.9c-.4-.4-.8-.8-1.2-1.3,0-.1.2-.3.3-.4.6-.4,1.3-.4,2-.1h0c-.4.5-.6,1.1-.6,1.7h-.4M31.2,163.5c-.6-.2-1.2-.2-1.8,0,0-.6.1-1.3.5-1.8.3-.3.6-.4,1-.4h0c-.1.3-.2.5-.2.8,0,.5.2.9.4,1.4M27.6,162.8c-.2-.2-.3-.4-.4-.7.3-.4.6-.7,1-.8.5-.2,1-.2,1.5,0h0c-.5.5-.7,1.2-.7,1.9-.4-.3-.8-.5-1.3-.5M28.7,164.1l-.6-.8c.3.1.6.3.8.5,0,0-.1.1-.2.2M46.2,148.4l.2.5-.5.4c0-.3,0-.5.2-.8M129,116.2l-.7,1.2h0c-2.4,4.1-5.4,7.9-9,11,3.6-4.8,6.1-10.4,7.4-16.3h0c0-.4.1-.8.1-1.2,0,.2-.3.7-.4,1.1-2.2,4.6-5.1,8.9-8.7,12.6,2.4-4.1,4.1-8.6,5.1-13.2h0c0-.4.1-.9.2-1.3l-.5,1.3c-2.7,6.1-6.7,11.5-11.6,15.9,3.2-4.8,5.2-10.4,5.8-16.2h0v-1.3c0,.4-.3.9-.4,1.3h0c-2.7,6.5-6.8,12.4-12,17.2,1.3-2.9,2.1-6,2.6-9.1,0-.3,0-.6,0-.9-.3.7-.7,1.4-.7,1.4h0c-2.3,3.6-4.9,6.9-7.9,9.9.5-1.2.9-2.4,1.1-3.7v-.4l-.3.2c-.8.7-3.3,2.2-4.2,2.8l.9-2.7h-.3c-1.5.4-2.9,1-4.3,1.6.9-1.7,2-4.1,2-4.1l.2-.3h-.3c-1.7.5-3.4,1.1-5,1.9.7-1.5,1.5-2.9,2.5-4.2l.2-.3h-.4c-1.8.3-3.5,1-5,2,.7-1.2,1.4-2.3,2.2-3.3l.4-.3h-.4c-2.8.6-5.3,1.9-7.5,3.8.5-1.4,1.1-2.8,1.8-4.1l.2-.3h-.4c-1.7.8-3.3,1.9-4.6,3.3.3-1.1.7-2.2,1.2-3.2l.2-.4-.4.2c-2.1,1.4-3.9,3-5.5,4.9-.1-1.3-.1-2.6,0-4-1.9,1.5-3.3,3.5-4.1,5.8-.4-1.8-1-4.6-1-4.6-.7.8-1.4,1.7-2,2.6-.7-1-2.1-1.3-3.2-.8-.2-.7-.5-1.1-1-1.2s-.9,0-1.5,1c-1-.5-2.2-.2-2.9.7-.3-.2-.7-.3-1.1-.3-1.1.1-2,.7-2.6,1.6-.2-.5-.6-.9-1.1-1.1-.3,0-.6,0-.9,0-.2-.4-.6-.7-1-.7-.7,0-1.3.4-1.5,1-.4,1.3-.6,2.6-.6,4l-.2.3v-4.9l-.3.3c-1.4,1.5-2.6,3.3-3.3,5.2-.1-.9-.2-1.9-.2-2.8,0-.4,0-.8,0-1.3v-.5l-.3.3c-1.7,1.8-2.9,3.9-3.6,6.3v-5l-.3.2c-1.8,1.5-3.1,3.5-4,5.6h0c0-1.8.2-3.9.2-3.9v-.3l-.3.3c-1.4,1.6-2.5,3.3-3.4,5.2,0-6.5.9-13,2.6-19.3,0-.1,0-.3.1-.4,0,0,0-.1,0-.2h0l.7-1c-.3.4-.6.8-.9,1.3-.8,1.3-1.6,2.7-2.1,3.6.7-4.8,1.9-9.4,1.9-9.4h0c0-.2,0-.3,0-.5-.1.1-.3.2-.4.4h0l-.2.2h0c-1.2,1.5-2.1,3.1-2.9,4.8.6-3,1.5-5.9,2.6-8.7.3-.6.6-1.2.6-1.2-.5.4-.9.9-1.3,1.4h0c-2.7,4.2-4.9,8.7-6.5,13.5v-1.2c0-1.9.2-3.7.4-5.6,0-.8.3-2.2.3-2.2-.2.4-.3.8-.5,1.2h0c0,.3-.2.4-.2.5-1.8,5.3-3.2,10.8-4,16.4-.3-1.6-.6-3.2-.7-4.2h0v-1.3h0v-1.1l-.6,2.9h0c-5.4,27,5.2,45.4,12.8,48.2,1.8.8,3.9.8,5.7,0,2.5-1.3,3.6-4.6,4.4-7.8.7-2.8,2.2-5.4,4.3-7.5-.5-.5-1-.9-1.6-1.3-2.3,2.2-3.7,6.7-5.4,12.4-.5,2.4-2.9,4-5.4,3.4-.2,0-.5-.1-.7-.2v-.2c0-.1.2-.2.3-.3.8-.5,1.8-.6,2.7-.4h.5l-.3-.5c-.6-.8-.8-1.9-.6-2.9.3-.7,1-1.2,2.2-1.5h.3l-.2-.3c-.6-.8-.7-1.9-.4-2.8h0c.5-.7,1.4-1.2,2.3-1.2h.3v-.3c-.5-1-.5-2.2,0-3.2,0,0,.1-.2.2-.3h0c.7-.7,1.6-1.2,2.6-1.2h.3v-.3c-.2-1.1,0-2.2.7-3.1.2-.3.5-.5.8-.7,0,.1.1.3.2.4.4.3.8.6,1.2.9l-.5-1.2s-2.6-4.8.1-7.8c0,0-.6,0-1.6,1.2-1-1.7-.4-3.9,1.2-4.9,0,0,0,0,.1,0-.4,0-.9,0-1.3.2,0,0-1.5-2.6,2.3-3.5-.5-.2-1.1-.2-1.7,0-.3-1.2.5-2.3,1.6-2.6,0,0,0,0,0,0h0c.8,4.2,1.9,8.3,3.3,12.4l-.5.6c-1,.3-3.4-5.9-3.4-5.9.2,1.5.5,3,1,4.4.4,1.3.9,2.5,1.4,3.7,0,.4.4,2.4,0,2.2h0c-.6-.4-3.2-3.3-3.2-3.3,0,0,1.3,2.6,1.8,3.3.8,1.1,1.4,2.3,1.9,3.6v.3h0c0,.4-.2.6-.4.7-.1,0-.3,0-.5,0l-.8-.6-.7-.6h0l-.8-.6s.5.7.9,1.4l.6,1c.3.5.7,1,1.2,1.4l.9,1.1c.3.4.5.8.7,1.2-.5-.2-1-.6-1.3-1.1-.3-.4-.7-.8-1.1-1.2h0l-.5-.5-.8-.8s.3.5.5.9h0l.2.2h0l.4.8,1,1.6.7,1.3c.8.9,1.6,1.7,2.6,2.4l-1,.6.2.2c1,.8,2.2,1.3,3.4,1.7l-.5.9h.2c.9.2,1.9.3,2.9.2,0,.2.1.7.1.7h2c0,.2.2.7.2.7l1.8-.2c.1.2.3.3.4.5h0l1-.2c.1.2.2.4.3.6h0c0,.1,1.3,0,1.3,0,0,.2.3,1,.3,1h.2c.4-.1.8-.2,1.2-.2-.3,1.1-1.1,2.1-2.2,2.6-1.7.7-4.3.2-7.7-1.6-2.2-1.2-4.9-1.2-7.1,0-1.9.8-3.9,1.2-6,1.1-.3,0-.7,0-1-.2.2.2.5.3.7.4h0c0,0,.2,0,.2,0h0c2.5.7,5.1.4,7.4-.7,2-.7,4.3-.3,6,1l1.5.8c3.1,1.8,7,1.1,9.3-1.5l.5.9h.7l.3,1.4h1.4l1.2,1.9v-.2c.1,0,1.2-1.3,1.2-1.3l1,1.2v.2c.1,0,1.4-1.8,1.4-1.8.4.2.7.4,1.1.7l.2.2v-.2c.2-.4.3-.8.5-1.1l1.2.9v-.2c.2-.5.5-1,.8-1.4.5.2,1.5.7,1.5.7h.2v-.2c.2-.5.5-1.1.8-1.6.6.2,1.3.6,1.8.9l.2.2v-.2c.5-1.5,0-3.1-1.4-3.9h0c0,0,0-.1,0-.2,0-.3-.2-.5-.4-.6,0,0,0-.1,0-.2.3-.2,1.1-.1,1.3,0h.2v-1.4c.2,0,.5.1.7.2h.1c.1-.3.2-.7.2-1.1,0-.6-.1-1.1-.3-1.6,1.4,1.3,3.2,1.9,5,1.8,1.6-.3,3-1.3,4-2.6l.4-.8c.7-1.6,2.2-2.8,4-3,1.9-.5,3.4-1.9,4-3.7.2-.5.3-1,.3-1.5-.1.3-.3.6-.4.8-.9,1.7-2.5,2.9-4.3,3.3-2.3.2-4.3,1.7-5.1,3.9-.5,1.2-1.5,2.1-2.7,2.4-1.8,0-3.5-1-4.4-2.6-1.4-2.7-4.6-3.8-7.4-2.6-.6.4-1.3.5-2,.5,0-.4-.2-.8-.3-1.2h.1c.4-.5.7-1.1.7-1.7,0-.4,0-.9-.2-1.3h0l-.3-.6c0-.3,0-.6,0-.9,0-1.1-.5-2.1-1.5-2.6h0c-.1.2-.3.3-.5.4-.6-.4-1.1-.9-1.6-1.4l-.3-1.5-.4-.2c.3-.8.8-1.4,1.6-1.7,2-.8,5.2,1,7.8,2.4l.7.4,1,.6c3.5,2,8.3,4.8,22.2-2.6,16.2-8.6,21.1-20,21.8-21.8.2-.4.3-.7.3-1.1-.2.2-.4.5-.5.7-1.9,2.5-4,4.8-6.3,6.8,3.2-4.1,5.7-8.6,7.5-13.5h0s0,0,0-.1h0c.2-.4.3-.9.4-1.3"/>
      <path d="M48.2,109.5c0,4,.7,8,1.8,11.8v-.3c.1-1.6.4-3.2.8-4.8l1,1.3c.3-1.6.7-3.1,1.4-4.6.2.8.5,1.5.8,2.2.5-1.8,1-3.6,1.8-5.4,0,1.5.2,2.9.6,4.3.9-2.4,1.9-4.7,3.2-7-.3,2-.3,4,0,6,1-2.2,2.1-4.3,3.5-6.2-.7,2.1-.8,4.3-.5,6.4,1-1.7,2.1-3.4,3.4-4.9-.7,1.9-1,4-.9,6,1.2-1.4,3-3,3-3-.7,1.7-1.1,3.6-1.1,5.4l2.6-2.2c-.8,1.8-1.3,3.8-1.3,5.8,1.3-.3,2.4-1.1,3.1-2.2-.6.4-1.3.7-2,1,.2-2.4,1-4.6,2.3-6.6-1.3.4-2.5,1.2-3.5,2.2.5-1.8,1-3.5,1.7-5.2-1.4.7-2.7,1.5-3.7,2.6.4-2.2,1-4.4,1.8-6.5-1.9,1.3-3.4,3-4.5,5,.4-2.5,1-5,1.7-7.4-1.9,1.9-3.6,4.2-4.8,6.6.1-2.3.6-5.5.6-5.5-1.9,1.8-3.3,4-4.2,6.5,0-1.6,0-3.3,0-4.9-1.3,1.9-2.3,4-2.9,6.1l-.4-1.9c-.8,1.5-1.5,3.1-2,4.8l-.8-1.2c-.4.6-.7,1.3-1,2-.3-1.6-.5-3.2-.6-4.9-.3-4.6,0-9.2.7-13.8.5,10.9,2,13.9,2,13.9,2.4-19.6,6.1-26.2,6.1-26.2-1.4,5.9-1.8,11.9-1.3,17.9,4.7-17,11-23.2,11-23.2-4.2,5.9-6.5,13-6.7,20.3,4.4-9.6,11.2-17.9,19.7-24.1-6.6,6.6-11.6,14.7-14.5,23.5,4.9-7.3,11.2-13.5,18.6-18.2-6.3,5.4-11.3,12.2-14.5,19.8,4.9-5.9,11.1-10.5,18.2-13.5-6.5,4.4-11.8,10.3-15.5,17.2,4.9-5.1,10.8-9,17.4-11.5-6,3.9-11.1,8.9-15,14.8,3.8-3.4,8-6.1,12.7-8.2-4.3,3-8,6.8-10.9,11.1,2.9-2.2,6.1-4,9.4-5.4-5.9,3.5-10.5,8.9-13.1,15.2h0c4.4-6.9,10.3-12.7,17.2-17.1h.2l.8-.4-.9.2h-.5c-2.7.6-5.2,1.6-7.6,3,3.5-3.8,7.7-6.9,12.3-9.3h0l.2-.2h0l.7-.3c-.3,0-.5,0-.8,0h-.3c-4.7,1-9.1,2.8-13.1,5.4,3.4-4.7,12.8-10,14.8-11.1l1-.5c-.4,0-.9,0-1.3.1h0c-6.2,1.3-12.1,3.9-17.2,7.6,4.5-6.3,14.8-12.3,16.9-13.5.4-.3,1.2-.6,1.2-.6-.3,0-.6,0-.9,0h-.4c-7.6,1.8-14.7,5.4-20.6,10.5,4.4-7.1,10.3-13,17.3-17.4h0l.8-.4c-.6.1-1.1.3-1.6.5h0c-7.8,3.1-14.7,8-20.3,14.3,4.3-7.8,10.2-14.5,17.2-20h0l.2-.2.7-.6-.9.3-.5.2h0c-10,4.5-18.4,11.9-24,21.2,1.9-7.1,5.4-13.7,10.1-19.4.4-.4,1.4-1.4,1.4-1.4,0,0-.8.4-1.2.7h0l-.4.3h0c-9,5.9-14.2,18.3-15.7,22.2.9-11.8,3.6-17.5,4.4-18.9h0c.4-.6,1-1.6,1-1.6-.6.6-1.2,1.2-1.7,1.8h0c0,.1-.2.3-.2.3h0c-6.2,7.8-9,23.2-9.7,27.2-.2-1.6-.4-3.2-.3-4.9,0-3.8.4-7.6.9-11.3v-.2c0,0,0-.1,0-.2,0-.4.1-.9.1-.9-.4.7-.8,1.4-.8,1.4h0c-3.2,6.8-4.5,14.3-3.6,21.8"/>
    </g>
  </g>
</svg>